<svg xmlns="http://www.w3.org/2000/svg" width="112.241" height="81.988" viewBox="0 0 112.241 81.988">
    <defs>
        <style>
            .cls-1{fill:#3b334a}.cls-2{fill:#f31357}.cls-3{fill:#1feaa4}.cls-4{fill:#7123db}
        </style>
    </defs>
    <g id="fist" transform="translate(0 -.5)">
        <path id="Caminho_280" d="M110.6 110.2h-5.028a1.643 1.643 0 0 0-1.548-1.1h-2.3a1.644 1.644 0 1 0 0 3.288h.658v17.869h-5.559a1.644 1.644 0 0 0 0 3.288h5.553v4.055h-9.865v-25.21h2.22a1.644 1.644 0 0 0 0-3.288h-3.864a1.644 1.644 0 0 0-1.644 1.644v1.2c-.5-.412-1.01-.825-1.534-1.244-.605-.486-1.232-.987-1.857-1.51a17.94 17.94 0 0 0-12.485-4.7h-.075l-7.853.361a5 5 0 0 0-4.938 4.471c0 .044-.008.088-.01.133h-.977a5.047 5.047 0 0 0-3.371 1.278 5.047 5.047 0 0 0-3.371-1.278h-.976c0-.043-.007-.086-.011-.128a5 5 0 0 0-4.938-4.476l-7.857-.353h-.075a17.94 17.94 0 0 0-12.486 4.7c-.625.521-1.251 1.023-1.857 1.509-.523.42-1.036.832-1.533 1.244v-1.2a1.645 1.645 0 0 0-1.644-1.644H8.221a1.644 1.644 0 0 0-1.549 1.1H1.644A1.645 1.645 0 0 0 0 111.844v26.306a1.644 1.644 0 0 0 1.644 1.644h5.029a1.643 1.643 0 0 0 1.548 1.1h13.153a1.644 1.644 0 0 0 1.644-1.644v-.407a7.063 7.063 0 0 0 1.749.221h23.1a4.969 4.969 0 0 0 4.983-5.022 4.9 4.9 0 0 0-.407-1.918 4.94 4.94 0 0 0 3.1-4.571 4.744 4.744 0 0 0-.507-2.18 5.05 5.05 0 0 0 1.083-.735 5.05 5.05 0 0 0 1.083.735 4.751 4.751 0 0 0-.507 2.182 4.941 4.941 0 0 0 3.1 4.569 4.884 4.884 0 0 0-.407 1.918 4.967 4.967 0 0 0 4.983 5.022h12.877a1.644 1.644 0 0 0 0-3.288H64.376a1.681 1.681 0 0 1-1.695-1.681 1.619 1.619 0 0 1 1.541-1.606h1.058a1.644 1.644 0 1 0 0-3.288h-3.605a1.669 1.669 0 0 1-1.69-1.642 1.768 1.768 0 0 1 1.606-1.646h2.453a1.644 1.644 0 1 0 0-3.288h-4.552a1.7 1.7 0 0 1-1.726-1.569 1.822 1.822 0 0 1 1.619-1.816H62.9a1.644 1.644 0 1 0 0-3.288h-4.057a1.655 1.655 0 0 1-1.078-1.621 1.707 1.707 0 0 1 1.727-1.571h6.328a1.644 1.644 0 1 0 0-3.288h-2.04a1.7 1.7 0 0 1 1.679-1.316h.075l7.849-.36a14.755 14.755 0 0 1 10.342 3.932c.649.542 1.288 1.055 1.906 1.55a39.372 39.372 0 0 1 3.591 3.108v18.967a3.778 3.778 0 0 1-1.749.426h-3.265a1.644 1.644 0 1 0 0 3.288h3.265a7.109 7.109 0 0 0 1.749-.221v.407a1.643 1.643 0 0 0 1.644 1.644h13.154a1.644 1.644 0 0 0 1.548-1.1h5.032a1.644 1.644 0 0 0 1.644-1.644v-26.309a1.644 1.644 0 0 0-1.644-1.644zM3.288 113.488h3.289v23.018H3.288zm49.461 9.13H48.2a1.644 1.644 0 0 0 0 3.288h2.455a1.635 1.635 0 0 1 1.6 1.643 1.669 1.669 0 0 1-1.69 1.644h-3.6a1.644 1.644 0 1 0 0 3.288h1.058c1.2 0 1.536 1.281 1.541 1.606a1.68 1.68 0 0 1-1.695 1.682h-23.1a3.767 3.767 0 0 1-1.749-.426v-10.949a1.644 1.644 0 1 0-3.288 0V137.6H9.865v-4.053h5.553a1.644 1.644 0 1 0 0-3.288H9.865v-17.867h9.865v5.015a1.644 1.644 0 0 0 3.288 0v-1.028a39.258 39.258 0 0 1 3.591-3.108c.617-.5 1.257-1.008 1.905-1.549a14.755 14.755 0 0 1 10.343-3.933l7.849.361h.075a1.705 1.705 0 0 1 1.679 1.315h-2.04a1.644 1.644 0 1 0 0 3.288h6.328a1.706 1.706 0 0 1 1.727 1.569 1.655 1.655 0 0 1-1.081 1.622h-4.051a1.644 1.644 0 1 0 0 3.288h3.514a1.743 1.743 0 0 1 1.619 1.815 1.7 1.7 0 0 1-1.727 1.571zm56.2 13.888h-3.288v-23.018h3.288zm0 0" class="cls-1" data-name="Caminho 280" transform="translate(0 -81.201)"/>
        <path id="Caminho_281" d="M250.144 10.365a1.644 1.644 0 0 0 1.644-1.644V2.144a1.644 1.644 0 1 0-3.288 0v6.577a1.644 1.644 0 0 0 1.644 1.644zm0 0" class="cls-2" data-name="Caminho 281" transform="translate(-194.024)"/>
        <path id="Caminho_282" d="M250.144 329.5a1.644 1.644 0 0 0-1.644 1.644v6.577a1.644 1.644 0 1 0 3.288 0v-6.577a1.644 1.644 0 0 0-1.644-1.644zm0 0" class="cls-2" data-name="Caminho 282" transform="translate(-194.024 -256.877)"/>
        <path id="Caminho_283" d="M162.542 31.73a1.644 1.644 0 0 0 2.848-1.644l-3.288-5.7a1.644 1.644 0 0 0-2.848 1.644zm0 0" class="cls-3" data-name="Caminho 283" transform="translate(-124.17 -18.011)"/>
        <path id="Caminho_284" d="M326.6 309.313a1.644 1.644 0 0 0-2.848 1.644l3.288 5.7a1.644 1.644 0 0 0 2.848-1.644zm0 0" class="cls-4" data-name="Caminho 284" transform="translate(-252.609 -240.472)"/>
        <path id="Caminho_285" d="M161.87 306.941a1.644 1.644 0 0 0-2.246.6l-3.288 5.695a1.644 1.644 0 1 0 2.847 1.644l3.288-5.695a1.644 1.644 0 0 0-.601-2.244zm0 0" class="cls-3" data-name="Caminho 285" transform="translate(-121.891 -239.091)"/>
        <path id="Caminho_286" d="M321.438 30.562a1.641 1.641 0 0 0 2.245-.6l3.288-5.695a1.644 1.644 0 1 0-2.847-1.644l-3.288 5.695a1.644 1.644 0 0 0 .602 2.244zm0 0" class="cls-4" data-name="Caminho 286" transform="translate(-250.33 -16.63)"/>
    </g>
</svg>
