<svg xmlns="http://www.w3.org/2000/svg" width="17" height="16" viewBox="0 0 17 16"><g><g><g><g><g><path fill="#7123db" d="M14.838 6.436a.654.654 0 0 0-.655.655v.659a6.395 6.395 0 0 1-1.888 4.55 6.395 6.395 0 0 1-4.549 1.883h-.004a6.444 6.444 0 0 1-6.433-6.44 6.395 6.395 0 0 1 1.888-4.551 6.395 6.395 0 0 1 4.549-1.883h.004c.907 0 1.787.188 2.616.557a.654.654 0 1 0 .533-1.195A7.697 7.697 0 0 0 7.75 0h-.004a7.696 7.696 0 0 0-5.474 2.266A7.695 7.695 0 0 0 0 7.742a7.695 7.695 0 0 0 2.266 5.478 7.696 7.696 0 0 0 5.476 2.272h.004a7.696 7.696 0 0 0 5.474-2.266 7.696 7.696 0 0 0 2.272-5.476v-.66a.654.654 0 0 0-.654-.654z"/></g></g></g><g><g><g><path fill="#7123db" d="M16.01.905a.655.655 0 0 0-.926 0L7.746 8.243 6.081 6.578a.654.654 0 1 0-.925.926L7.283 9.63a.652.652 0 0 0 .926 0l7.8-7.8a.654.654 0 0 0 0-.926z"/></g></g></g></g></g></svg>