<svg xmlns="http://www.w3.org/2000/svg" width="32.8" height="32.8" viewBox="0 0 32.8 32.8">
    <defs>
        <style>
            .cls-1,.cls-2{fill:#f6f5f8;stroke:#130f19}.cls-2{fill:#1feaa4;stroke-width:.3px}.cls-3,.cls-5{fill:none}.cls-3{stroke:#1feaa4;stroke-linecap:round;stroke-linejoin:round;stroke-width:1.5px}.cls-4{stroke:none}
        </style>
    </defs>
    <g id="articles" transform="translate(-712.5 -1852.372)">
        <path id="blog" d="M30.558 0H1.242A1.242 1.242 0 0 0 0 1.242v29.316A1.242 1.242 0 0 0 1.242 31.8h29.316a1.242 1.242 0 0 0 1.242-1.242V1.242A1.242 1.242 0 0 0 30.558 0zm-1.243 29.315H2.484V7.826h26.831zm0-23.974H2.484V2.484h26.831z" class="cls-1" transform="translate(713 1852.872)"/>
        <g id="Grupo_242" data-name="Grupo 242" transform="translate(731.191 1868.88)">
            <g id="Grupo_238" data-name="Grupo 238">
                <path id="Caminho_356" d="M161.641 147.713h-7c-.286 0-.517.365-.517.814s.232.814.517.814h7c.286 0 .517-.365.517-.814s-.231-.814-.517-.814z" class="cls-2" data-name="Caminho 356" transform="translate(-154.122 -147.713)"/>
            </g>
        </g>
        <g id="Grupo_243" data-name="Grupo 243" transform="translate(731.191 1873.115)">
            <g id="Grupo_240" data-name="Grupo 240">
                <path id="Caminho_357" d="M161.641 215.9h-7c-.286 0-.517.365-.517.814s.232.814.517.814h7c.286 0 .517-.365.517-.814s-.231-.814-.517-.814z" class="cls-2" data-name="Caminho 357" transform="translate(-154.122 -215.895)"/>
            </g>
        </g>
        <g id="Retângulo_133" class="cls-3" data-name="Retângulo 133">
            <path d="M0 0h6v6H0z" class="cls-4" transform="translate(721 1869)"/>
            <path d="M-.75-.75h7.5v7.5h-7.5z" class="cls-5" transform="translate(721 1869)"/>
        </g>
    </g>
</svg>
