<svg xmlns="http://www.w3.org/2000/svg" width="33.652" height="33.702" viewBox="0 0 33.652 33.702">
    <defs>
        <style>
            .cls-1{fill:#f6f5f8}.cls-2{fill:#1feaa4}
        </style>
    </defs>
    <g id="phone-call" transform="translate(-.344)">
        <g id="Grupo_235" data-name="Grupo 235" transform="translate(.344)">
            <path id="Caminho_352" d="M26.955 46.333a3.315 3.315 0 0 0-2.4-1.1 3.428 3.428 0 0 0-2.433 1.1l-2.252 2.234c-.185-.1-.37-.192-.548-.285-.256-.128-.5-.249-.7-.377a24.429 24.429 0 0 1-5.854-5.335 14.412 14.412 0 0 1-1.92-3.03c.583-.533 1.124-1.088 1.65-1.622.2-.2.4-.405.6-.6a3.263 3.263 0 0 0 0-4.922L11.15 30.45c-.221-.22-.448-.448-.662-.676-.427-.441-.875-.9-1.337-1.323a3.367 3.367 0 0 0-2.383-1.046 3.484 3.484 0 0 0-2.418 1.047l-.014.014-2.418 2.44a5.2 5.2 0 0 0-1.544 3.307 12.469 12.469 0 0 0 .91 5.278 30.626 30.626 0 0 0 5.441 9.076 33.473 33.473 0 0 0 11.146 8.728 17.366 17.366 0 0 0 6.259 1.849c.149.007.306.014.448.014a5.36 5.36 0 0 0 4.1-1.764c.007-.014.021-.021.028-.036a16.17 16.17 0 0 1 1.245-1.287c.306-.292.619-.6.925-.918a3.548 3.548 0 0 0 1.074-2.461 3.418 3.418 0 0 0-1.1-2.44zm2.546 7.49c-.007 0-.007.007 0 0-.277.3-.562.569-.868.868a18.7 18.7 0 0 0-1.373 1.423 3.429 3.429 0 0 1-2.674 1.131c-.107 0-.22 0-.327-.007a15.427 15.427 0 0 1-5.548-1.664 31.6 31.6 0 0 1-10.5-8.223 28.877 28.877 0 0 1-5.121-8.528 10.156 10.156 0 0 1-.8-4.453 3.265 3.265 0 0 1 .982-2.113L5.7 29.832a1.617 1.617 0 0 1 1.081-.505 1.521 1.521 0 0 1 1.038.5l.021.021c.434.405.846.825 1.28 1.273.22.228.448.455.676.69l1.942 1.942a1.357 1.357 0 0 1 0 2.2c-.206.206-.405.413-.612.612a38.7 38.7 0 0 1-1.785 1.736c-.014.014-.028.021-.036.036a1.451 1.451 0 0 0-.37 1.615l.021.064a15.59 15.59 0 0 0 2.3 3.749l.007.007a26.107 26.107 0 0 0 6.317 5.748 9.71 9.71 0 0 0 .875.477c.256.128.5.249.7.377.028.014.057.036.085.05a1.542 1.542 0 0 0 .7.178 1.521 1.521 0 0 0 1.081-.491l2.433-2.433a1.609 1.609 0 0 1 1.074-.533 1.449 1.449 0 0 1 1.024.519l.014.014 3.928 3.922a1.406 1.406 0 0 1 .006 2.223z" class="cls-1" data-name="Caminho 352" transform="translate(-.344 -25.457)"/>
            <path id="Caminho_353" d="M245.734 87.83a9.154 9.154 0 0 1 7.454 7.454.954.954 0 0 0 .946.8 1.27 1.27 0 0 0 .164-.014.961.961 0 0 0 .79-1.11 11.069 11.069 0 0 0-9.019-9.019.965.965 0 0 0-1.11.782.95.95 0 0 0 .775 1.107z" class="cls-2" data-name="Caminho 353" transform="translate(-227.546 -79.813)"/>
            <path id="Caminho_354" d="M264.742 14.867A18.227 18.227 0 0 0 249.891.015a.959.959 0 1 0-.313 1.892A16.28 16.28 0 0 1 262.85 15.18a.954.954 0 0 0 .946.8 1.27 1.27 0 0 0 .164-.014.942.942 0 0 0 .782-1.099z" class="cls-2" data-name="Caminho 354" transform="translate(-231.105)"/>
        </g>
    </g>
</svg>
