<svg xmlns="http://www.w3.org/2000/svg" width="45" height="47" viewBox="0 0 45 47"><g><g><g><path fill="#f6f5f8" d="M29.02 43.463l-4.429-2.658a.686.686 0 0 0-.94.234l-2.66 4.43L2.1 34.127 19.464 5.201l23.91 14.353zm7.345-7.705h-1.12l1.12-1.864zm-13.699 9.585l1.807-3.01 3.01 1.807-.496.124zM12.136 11.62V5.677h5.443L14.01 11.62h-.001zm32.531 7.111l-6.934-4.163a.716.716 0 0 0 .003-.068V1.334a.686.686 0 0 0-.686-.686h-3.017a.686.686 0 0 0 0 1.372h2.332v11.727l-6.132-3.681h3.16a.686.686 0 0 0 0-1.372H28.06a.692.692 0 0 0-.099.008L25.36 7.14h8.034a.686.686 0 0 0 0-1.371h-10.24a.689.689 0 0 0-.072.003l-3.499-2.1a.693.693 0 0 0-.94.235l-.24.399h-6.953a.686.686 0 0 0-.685.685v7.315c0 .379.307.686.685.686h1.739l-4.71 7.845V2.02h18.386a.686.686 0 1 0 0-1.372H7.792a.686.686 0 0 0-.686.686v21.787L.57 34.01a.686.686 0 0 0 .235.941l20.069 12.047c.153.093.345.121.519.078l8.028-2.005a.693.693 0 0 0 .422-.313l4.579-7.627h2.628a.686.686 0 0 0 .686-.686v-4.835l7.166-11.937a.686.686 0 0 0-.235-.94z"/></g><g><path fill="#f6f5f8" d="M24.143 13.129l5.017 3.011a.683.683 0 0 0 .94-.235.686.686 0 0 0-.234-.94l-5.017-3.013a.686.686 0 0 0-.706 1.177z"/></g><g><path fill="#f6f5f8" d="M31.668 17.646l6.899 4.141a.693.693 0 0 0 .977-.302.693.693 0 0 0-.271-.874l-6.899-4.14a.686.686 0 0 0-.706 1.175z"/></g><g><path fill="#f6f5f8" d="M17.494 14.256l5.644 3.388a.683.683 0 0 0 .941-.235.685.685 0 0 0-.235-.94L18.2 13.08a.686.686 0 0 0-.706 1.176z"/></g><g><path fill="#f6f5f8" d="M37.014 24.374l-10.661-6.4a.686.686 0 1 0-.706 1.176l10.66 6.4a.692.692 0 0 0 .977-.302.692.692 0 0 0-.27-.874z"/></g><g><path fill="#f6f5f8" d="M33.25 30.645l-14.425-8.658a.686.686 0 0 0-.706 1.175l14.424 8.66a.692.692 0 0 0 .977-.303.692.692 0 0 0-.27-.874z"/></g><g><path fill="#f6f5f8" d="M31.367 33.781L26.35 30.77a.686.686 0 1 0-.706 1.176l5.017 3.012a.692.692 0 0 0 .976-.303.693.693 0 0 0-.27-.873z"/></g><g><path fill="#f6f5f8" d="M9.965 26.798l4.39 2.636a.685.685 0 0 0 .706-1.176l-4.39-2.636a.686.686 0 0 0-.706 1.176z"/></g><g><path fill="#f6f5f8" d="M29.484 36.917L17.57 29.764a.686.686 0 0 0-.706 1.176l11.916 7.153a.692.692 0 0 0 .976-.303.692.692 0 0 0-.27-.873z"/></g><g><path fill="#f6f5f8" d="M14.431 36.412l-7.525-4.518A.686.686 0 0 0 6.2 33.07l7.525 4.517a.685.685 0 0 0 .706-1.176z"/></g></g></g></svg>