<svg xmlns="http://www.w3.org/2000/svg" width="38" height="29" viewBox="0 0 38 29"><g><g><g><g><path fill="#f7f6f9" d="M35.767 24.192a2.518 2.518 0 0 1-2.516 2.516H4.631a2.518 2.518 0 0 1-2.515-2.516V4.639a2.518 2.518 0 0 1 2.516-2.515h28.611a2.518 2.518 0 0 1 2.516 2.515v19.553zM33.25 0H4.631A4.636 4.636 0 0 0 0 4.632v19.56a4.636 4.636 0 0 0 4.632 4.632h28.611a4.636 4.636 0 0 0 4.632-4.632V4.639A4.63 4.63 0 0 0 33.251 0z"/></g><g><path fill="#f7f6f9" d="M23.886 14.169l9.263-8.307c.431-.392.47-1.058.079-1.497a1.063 1.063 0 0 0-1.497-.078L18.957 15.752l-2.492-2.226c-.008-.008-.016-.015-.016-.023a1.568 1.568 0 0 0-.172-.15L6.137 4.28a1.057 1.057 0 0 0-1.498.086 1.057 1.057 0 0 0 .087 1.497l9.372 8.377-9.333 8.738a1.062 1.062 0 0 0 1.45 1.552l9.474-8.863 2.57 2.296a1.057 1.057 0 0 0 1.411-.008l2.641-2.367 9.42 8.95c.204.196.47.29.729.29A1.057 1.057 0 0 0 33.189 23z"/></g></g></g></g></svg>