<svg xmlns="http://www.w3.org/2000/svg" width="88.361" height="87.899" viewBox="0 0 88.361 87.899">
    <defs>
        <style>
            .cls-1{fill:#f31357}.cls-2{fill:#7123db}.cls-3{fill:#1feaa4}
        </style>
    </defs>
    <g id="visitor" transform="translate(0 -1.304)">
        <g id="Grupo_165" data-name="Grupo 165" transform="translate(61.378 54.591)">
            <g id="Grupo_164" data-name="Grupo 164">
                <path id="Caminho_293" d="M353.017 301.992l-6.673 6.673 2 2 3.251-3.251v12.173h2.835v-12.168l3.251 3.251 2-2z" class="cls-1" data-name="Caminho 293" transform="translate(-346.344 -301.992)"/>
            </g>
        </g>
        <g id="Grupo_167" data-name="Grupo 167" transform="translate(17.013 14.479)">
            <g id="Grupo_166" data-name="Grupo 166">
                <path id="Caminho_294" d="M115.433 75.648l-2 2 3.251 3.251H96v2.835h20.679l-3.251 3.251 2 2 6.673-6.673z" class="cls-1" data-name="Caminho 294" transform="translate(-96 -75.648)"/>
            </g>
        </g>
        <g id="Grupo_169" data-name="Grupo 169" transform="translate(5.671 60.849)">
            <g id="Grupo_168" data-name="Grupo 168">
                <path id="Caminho_295" d="M32 337.3v19.848h25.519V337.3zm22.684 17.013H34.835v-14.174h19.849z" class="cls-2" data-name="Caminho 295" transform="translate(-32 -337.304)"/>
            </g>
        </g>
        <g id="Grupo_171" data-name="Grupo 171" transform="translate(35.443 60.849)">
            <g id="Grupo_170" data-name="Grupo 170">
                <path id="Retângulo_120" d="M0 0h14.177v2.835H0z" data-name="Retângulo 120"/>
            </g>
        </g>
        <g id="Grupo_173" data-name="Grupo 173" transform="translate(35.443 66.52)">
            <g id="Grupo_172" data-name="Grupo 172">
                <path id="Retângulo_121" d="M0 0h14.177v2.835H0z" data-name="Retângulo 121"/>
            </g>
        </g>
        <g id="Grupo_175" data-name="Grupo 175" transform="translate(35.443 72.191)">
            <g id="Grupo_174" data-name="Grupo 174">
                <path id="Retângulo_122" d="M0 0h14.177v2.835H0z" data-name="Retângulo 122"/>
            </g>
        </g>
        <g id="Grupo_177" data-name="Grupo 177" transform="translate(35.443 77.861)">
            <g id="Grupo_176" data-name="Grupo 176">
                <path id="Retângulo_123" d="M0 0h14.177v2.835H0z" data-name="Retângulo 123"/>
            </g>
        </g>
        <g id="Grupo_179" data-name="Grupo 179" transform="translate(0 1.304)">
            <g id="Grupo_178" data-name="Grupo 178">
                <path id="Caminho_296" d="M86.435 45.6a9.881 9.881 0 0 0-7.595-7.005L70.887 37v-.371a11.367 11.367 0 0 0 5.325-7.08 5.676 5.676 0 0 0 4.6-5.563v-9.75a8.89 8.89 0 0 0-6.218-8.489A10.945 10.945 0 0 0 65.776 1.3a16.172 16.172 0 0 0-16.155 16.159v6.529a5.676 5.676 0 0 0 4.6 5.563 11.367 11.367 0 0 0 5.325 7.08V37l-7.951 1.591a9.864 9.864 0 0 0-6.883 5.243H0V89.2h56.709V52.342h31.652zm-9.878-19.171v-4.883a2.811 2.811 0 0 1 0 4.883zm-22.684 0a2.811 2.811 0 0 1 0-4.883zm-1.418-7.324v-1.647A13.334 13.334 0 0 1 65.776 4.139a8.116 8.116 0 0 1 6.767 3.622l.3.455.532.133a6.059 6.059 0 0 1 4.6 5.888v4.867a5.613 5.613 0 0 0-2.835-.788 15.693 15.693 0 0 1-9.359-3.116l-2.116-1.59-2.115 2.115a8.79 8.79 0 0 1-6.258 2.592 5.613 5.613 0 0 0-2.836.788zm4.253 7.718v-5.766a11.584 11.584 0 0 0 6.845-3.327l.377-.377.15.112a18.573 18.573 0 0 0 9.641 3.629v5.729a8.506 8.506 0 0 1-17.013 0zm-2.834 59.545H2.835V58.013h51.039zm0-31.19H2.835v-8.507H43.69l-1.62 5.671h11.8zm23.79-5.671l-1.15-4.6-2.75.686.978 3.91H55.69l.977-3.91-2.75-.686-1.15 4.6h-6.939l.9-3.13a7.061 7.061 0 0 1 5.426-5l10.23-2.046v-1.54a10.948 10.948 0 0 0 5.671 0v1.537l10.232 2.044a7.063 7.063 0 0 1 5.426 5l.893 3.13z" data-name="Caminho 296" transform="translate(0 -1.304)"/>
            </g>
        </g>
        <g id="Grupo_181" data-name="Grupo 181" transform="translate(5.671 49.507)">
            <g id="Grupo_180" data-name="Grupo 180">
                <path id="Retângulo_124" d="M0 0h2.835v2.835H0z" class="cls-3" data-name="Retângulo 124"/>
            </g>
        </g>
        <g id="Grupo_183" data-name="Grupo 183" transform="translate(11.342 49.507)">
            <g id="Grupo_182" data-name="Grupo 182">
                <path id="Retângulo_125" d="M0 0h2.835v2.835H0z" class="cls-3" data-name="Retângulo 125"/>
            </g>
        </g>
        <g id="Grupo_185" data-name="Grupo 185" transform="translate(17.013 49.507)">
            <g id="Grupo_184" data-name="Grupo 184">
                <path id="Retângulo_126" d="M0 0h2.835v2.835H0z" class="cls-3" data-name="Retângulo 126"/>
            </g>
        </g>
        <g id="Grupo_187" data-name="Grupo 187" transform="translate(0 19.734)">
            <g id="Grupo_186" data-name="Grupo 186">
                <path id="Retângulo_127" d="M0 0h2.835v2.835H0z" class="cls-1" data-name="Retângulo 127"/>
            </g>
        </g>
        <g id="Grupo_189" data-name="Grupo 189" transform="translate(5.671 19.734)">
            <g id="Grupo_188" data-name="Grupo 188">
                <path id="Retângulo_128" d="M0 0h2.835v2.835H0z" class="cls-1" data-name="Retângulo 128"/>
            </g>
        </g>
        <g id="Grupo_191" data-name="Grupo 191" transform="translate(11.342 19.734)">
            <g id="Grupo_190" data-name="Grupo 190">
                <path id="Retângulo_129" d="M0 0h2.835v2.835H0z" class="cls-1" data-name="Retângulo 129"/>
            </g>
        </g>
        <g id="Grupo_193" data-name="Grupo 193" transform="translate(66.633 86.368)">
            <g id="Grupo_192" data-name="Grupo 192">
                <path id="Retângulo_130" d="M0 0h2.835v2.835H0z" class="cls-1" data-name="Retângulo 130"/>
            </g>
        </g>
        <g id="Grupo_195" data-name="Grupo 195" transform="translate(66.633 80.697)">
            <g id="Grupo_194" data-name="Grupo 194">
                <path id="Retângulo_131" d="M0 0h2.835v2.835H0z" class="cls-1" data-name="Retângulo 131"/>
            </g>
        </g>
        <g id="Grupo_197" data-name="Grupo 197" transform="translate(66.633 75.026)">
            <g id="Grupo_196" data-name="Grupo 196">
                <path id="Retângulo_132" d="M0 0h2.835v2.835H0z" class="cls-1" data-name="Retângulo 132"/>
            </g>
        </g>
    </g>
</svg>
