<svg xmlns="http://www.w3.org/2000/svg" width="77.017" height="78.656" viewBox="0 0 77.017 78.656">
    <defs>
        <style>
            .cls-1{fill:#3b334a}.cls-2{fill:#7123db}.cls-3{fill:#f31357}.cls-4{fill:#1feaa4}
        </style>
    </defs>
    <g id="document" transform="translate(-1.737)">
        <g id="Grupo_163" data-name="Grupo 163" transform="translate(1.737)">
            <g id="Grupo_162" data-name="Grupo 162">
                <path id="Caminho_287" d="M78 44.051l-15.254-9.832a1.607 1.607 0 0 0-.379-.147v-3.391a1.638 1.638 0 0 0-1.639-1.639h-6.084L41.934 21.1a1.637 1.637 0 0 0-1.738 0l-12.71 7.944h-7.724a1.638 1.638 0 0 0-1.639 1.639v3.39a1.582 1.582 0 0 0-.379.148l-15.256 9.83a1.642 1.642 0 0 0-.751 1.378v42.6a1.638 1.638 0 0 0 1.639 1.639h73.739a1.638 1.638 0 0 0 1.639-1.639v-42.6A1.643 1.643 0 0 0 78 44.051zm-36.935-19.63l7.4 4.621H33.67zM21.4 32.319h37.69v36.884l-5.54 3.365-13.339-7.275a1.643 1.643 0 0 0-1.6.016l-12.17 6.956L21.4 69.2v-.013zm-16.387 14l13.109-8.447v29.34L5.015 59.255zm0 16.766l18.176 11.037L5.015 84.508zM8.317 86.4l31.129-17.792L72.055 86.4zm67.16-1.867l-18.6-10.146 18.6-11.295zm0-25.273l-13.11 7.954V37.875l13.109 8.447z" class="cls-1" data-name="Caminho 287" transform="translate(-1.737 -11.016)"/>
                <path id="Caminho_288" d="M55.495 65.229h19.664a1.638 1.638 0 0 0 1.641-1.638v-9.832a1.638 1.638 0 0 0-1.639-1.639H55.495a1.638 1.638 0 0 0-1.639 1.639v9.832a1.638 1.638 0 0 0 1.639 1.638zm1.638-9.829H73.52v6.554H57.133z" class="cls-2" data-name="Caminho 288" transform="translate(-29.276 -27.54)"/>
                <path id="Ret창ngulo_118" d="M0 0h26.218v3.277H0z" class="cls-3" data-name="Ret창ngulo 118" transform="translate(24.58 40.967)"/>
                <path id="Ret창ngulo_119" d="M0 0h26.218v3.277H0z" class="cls-3" data-name="Ret창ngulo 119" transform="translate(24.58 47.522)"/>
                <path id="Caminho_289" d="M145.835 31.535a1.633 1.633 0 0 0 1.159-.48l5.793-5.793a1.638 1.638 0 0 0-2.317-2.317l-5.793 5.793a1.639 1.639 0 0 0 1.158 2.8z" class="cls-4" data-name="Caminho 289" transform="translate(-77.011 -11.87)"/>
                <path id="Caminho_290" d="M9.626 31.055a1.639 1.639 0 0 0 2.317-2.317L6.15 22.945a1.638 1.638 0 0 0-2.317 2.317z" class="cls-4" data-name="Caminho 290" transform="translate(-2.591 -11.871)"/>
                <path id="Caminho_291" d="M117.429 11.355a1.62 1.62 0 0 0 .608.116 1.638 1.638 0 0 0 1.522-1.03l3.277-8.193a1.639 1.639 0 0 0-3.043-1.216l-3.277 8.193a1.639 1.639 0 0 0 .913 2.13z" class="cls-4" data-name="Caminho 291" transform="translate(-62.322)"/>
                <path id="Caminho_292" d="M43.352 10.442a1.638 1.638 0 0 0 1.522 1.03 1.617 1.617 0 0 0 .608-.117 1.639 1.639 0 0 0 .914-2.13l-3.278-8.193a1.639 1.639 0 1 0-3.043 1.216z" class="cls-4" data-name="Caminho 292" transform="translate(-21.932 -.001)"/>
            </g>
        </g>
    </g>
</svg>
