<svg xmlns="http://www.w3.org/2000/svg" width="79.455" height="79.105" viewBox="0 0 79.455 79.105">
    <defs>
        <style>
            .cls-1{fill:#3b334a}.cls-2{fill:#7123db}.cls-3{fill:#f31357}.cls-4{fill:#1feaa4}
        </style>
    </defs>
    <g id="file" transform="translate(-6)">
        <path id="Caminho_297" d="M68.9 76.855l-3.569-3.569V27.141l-.655-.655-5.937-5.937V0H6v68.558h6.592v6.592h50.873l3.569 3.569a1.318 1.318 0 1 0 1.866-1.864zm-8.07-50.487H45.553V11.093l13.184 13.185zM8.637 65.921V2.637H56.1v15.275L45.435 7.247l-.655-.655H12.592v59.329zm6.592 6.592V9.229h27.687v19.776h19.776v41.644l-9.907-9.907a15.63 15.63 0 1 0-1.864 1.864l9.907 9.907zm25.647-8.859A12.958 12.958 0 1 1 53.834 50.7a12.972 12.972 0 0 1-12.958 12.955z" class="cls-1" data-name="Caminho 297"/>
        <path id="Caminho_298" d="M26.943 36.637h7.911a1.318 1.318 0 1 0 0-2.637h-7.911a1.318 1.318 0 0 0 0 2.637z" class="cls-2" data-name="Caminho 298" transform="translate(6.249 10.827)"/>
        <path id="Caminho_299" d="M42.765 40H26.943a1.318 1.318 0 1 0 0 2.637h15.822a1.318 1.318 0 1 0 0-2.637z" class="cls-2" data-name="Caminho 299" transform="translate(6.249 12.737)"/>
        <path id="Caminho_300" d="M1.849 11.093A1.849 1.849 0 0 0 3.7 9.244v-7.4a1.849 1.849 0 1 0-3.7 0v7.4a1.849 1.849 0 0 0 1.849 1.849zm0 0" class="cls-3" data-name="Caminho 300" transform="rotate(90 25.521 59.934)"/>
        <path id="Caminho_301" d="M3.945 9.178a1.849 1.849 0 0 0 3.2-1.849l-3.7-6.4a1.849 1.849 0 0 0-3.2 1.849zm0 0" class="cls-4" data-name="Caminho 301" transform="rotate(90 33.705 46.063)"/>
        <path id="Caminho_302" d="M.925 9.854a1.846 1.846 0 0 0 2.525-.677l3.7-6.4A1.849 1.849 0 1 0 3.946.925l-3.7 6.4a1.849 1.849 0 0 0 .679 2.529zm0 0" class="cls-2" data-name="Caminho 302" transform="rotate(90 14.007 66.197)"/>
    </g>
</svg>
