<svg xmlns="http://www.w3.org/2000/svg" width="24.912" height="26.211" viewBox="0 0 24.912 26.211">
    <defs>
        <style>
            .cls-1{fill:#3b334a}
        </style>
    </defs>
    <g id="printer" transform="translate(-11.95)">
        <g id="Grupo_218" data-name="Grupo 218" transform="translate(11.95)">
            <path id="Caminho_340" d="M32.989 5.373h-.674v-1.5A3.879 3.879 0 0 0 28.443 0H20.31a3.879 3.879 0 0 0-3.873 3.873v1.5h-.614a3.879 3.879 0 0 0-3.873 3.873v6.247a3.879 3.879 0 0 0 3.873 3.873h.608v4.911a1.938 1.938 0 0 0 1.934 1.934h12.011a1.938 1.938 0 0 0 1.934-1.934v-4.911h.679a3.879 3.879 0 0 0 3.873-3.873V9.246a3.879 3.879 0 0 0-3.873-3.873zM17.9 3.873a2.411 2.411 0 0 1 2.4-2.406h8.127a2.411 2.411 0 0 1 2.407 2.407v1.5H17.9zm12.944 20.415a.471.471 0 0 1-.467.467H18.366a.471.471 0 0 1-.467-.467v-8.1h12.945zM35.4 15.5a2.411 2.411 0 0 1-2.411 2.4h-.674v-1.712h.967a.733.733 0 1 0 0-1.467H15.356a.733.733 0 1 0 0 1.467h1.081V17.9h-.614a2.411 2.411 0 0 1-2.406-2.4V9.251a2.411 2.411 0 0 1 2.407-2.407h17.165A2.411 2.411 0 0 1 35.4 9.251z" class="cls-1" data-name="Caminho 340" transform="translate(-11.95)"/>
            <path id="Caminho_341" d="M141.383 338.867h9.338a.733.733 0 1 0 0-1.467h-9.338a.733.733 0 1 0 0 1.467z" class="cls-1" data-name="Caminho 341" transform="translate(-133.659 -319.071)"/>
            <path id="Caminho_342" d="M151.727 392.6h-9.344a.733.733 0 1 0 0 1.467h9.338a.733.733 0 0 0 .005-1.467z" class="cls-1" data-name="Caminho 342" transform="translate(-134.604 -371.273)"/>
            <path id="Caminho_343" d="M360.272 151.9h-1.488a.733.733 0 1 0 0 1.467h1.488a.733.733 0 0 0 0-1.467z" class="cls-1" data-name="Caminho 343" transform="translate(-339.249 -143.648)"/>
        </g>
    </g>
</svg>
