<svg xmlns="http://www.w3.org/2000/svg" width="81.969" height="76.578" viewBox="0 0 81.969 76.578">
    <defs>
        <style>
            .cls-1{fill:#7123db}.cls-2{fill:#f31357}.cls-3{fill:#1feaa4}
        </style>
    </defs>
    <g id="notification" transform="translate(.014 -.261)">
        <path id="Caminho_316" d="M61.833 116.774v-4.1a1.368 1.368 0 0 0-1.367-1.367 1.368 1.368 0 0 1-1.367-1.367v-5.47a8.2 8.2 0 1 0-16.41 0v5.47a1.368 1.368 0 0 1-1.367 1.367 1.368 1.368 0 0 0-1.367 1.367v4.1a1.368 1.368 0 0 0 1.367 1.367h19.143a1.368 1.368 0 0 0 1.368-1.367zm-2.733-1.368H42.688v-1.6a4.11 4.11 0 0 0 2.735-3.869v-5.47a5.47 5.47 0 1 1 10.94 0v5.47a4.11 4.11 0 0 0 2.735 3.869zm0 0" class="cls-1" data-name="Caminho 316" transform="translate(-33.135 -79.59)"/>
        <path id="Caminho_317" d="M72.456 80.565a9.572 9.572 0 0 0-9.463 8.2H34.167a17.777 17.777 0 1 0-25.982 8.123v31.538a1.368 1.368 0 0 0 1.367 1.367h62.9a1.368 1.368 0 0 0 1.367-1.367V99.6a9.572 9.572 0 0 0-1.367-19.035zM62.993 91.5a9.515 9.515 0 0 0 .912 2.911L41 110.35 24.035 98.544a17.847 17.847 0 0 0 8.679-7.04zM2.716 81.932a15.042 15.042 0 1 1 15.042 15.042A15.042 15.042 0 0 1 2.716 81.932zm8.2 16.41a17.285 17.285 0 0 0 9.649 1.126l14.037 9.767L10.92 125.8zm2.973 28.717L37 110.9l3.226 2.243a1.367 1.367 0 0 0 1.562 0l3.224-2.243 23.1 16.163zm57.2-1.259L47.4 109.231 65.47 96.66a9.55 9.55 0 0 0 5.619 2.94zm1.367-28.826a6.837 6.837 0 1 1 6.837-6.837 6.838 6.838 0 0 1-6.837 6.837zm0 0" data-name="Caminho 317" transform="translate(0 -52.954)"/>
        <path id="Caminho_318" d="M408.444 192.463a1.368 1.368 0 0 0-1.33-.06l-2.735 1.367 1.223 2.448.756-.379v4.625h2.735v-6.837a1.366 1.366 0 0 0-.649-1.164zm0 0" class="cls-2" data-name="Caminho 318" transform="translate(-335.269 -159.178)"/>
        <path id="Caminho_319" d="M191.953 32.262V35c.335 0 8.2.11 8.2 9.572h2.735c.005-12.172-10.825-12.31-10.935-12.31zm0 0" class="cls-2" data-name="Caminho 319" transform="translate(-159.153 -26.53)"/>
        <path id="Caminho_320" d="M191.609 64.262l.118 2.738a2.5 2.5 0 0 1 1.61.684A4.607 4.607 0 0 1 194.4 71.1h2.735a7.161 7.161 0 0 0-1.914-5.394 5.207 5.207 0 0 0-3.612-1.444zm0 0" class="cls-2" data-name="Caminho 320" transform="translate(-158.868 -53.06)"/>
        <path id="Caminho_321" d="M208.363 18.039c0-5.47-1.583-9.835-4.708-12.953a17.981 17.981 0 0 0-11.7-4.824V3a15.254 15.254 0 0 1 9.767 4.024c2.594 2.587 3.908 6.293 3.908 11.018zm0 0" class="cls-2" data-name="Caminho 321" transform="translate(-159.153)"/>
        <path id="Caminho_322" d="M143.953 32.262h2.735V35h-2.735zm0 0" class="cls-3" data-name="Caminho 322" transform="translate(-119.358 -26.53)"/>
        <path id="Caminho_323" d="M239.953 128.262h2.735V131h-2.735zm0 0" class="cls-3" data-name="Caminho 323" transform="translate(-198.949 -106.121)"/>
        <path id="Caminho_324" d="M12.231 40.066A17.775 17.775 0 0 1 23.571 35v-2.738a20.238 20.238 0 0 0-13.271 5.87zm0 0" class="cls-3" data-name="Caminho 324" transform="translate(-8.548 -26.53)"/>
    </g>
</svg>
