<svg xmlns="http://www.w3.org/2000/svg" width="75.601" height="75.603" viewBox="0 0 75.601 75.603">
    <defs>
        <style>
            .cls-1{fill:#3b334a}.cls-2{fill:#f31357}.cls-3{fill:#1feaa4}.cls-4{fill:#7123db}
        </style>
    </defs>
    <g id="resume" transform="translate(-.007)">
        <g id="Grupo_199" data-name="Grupo 199" transform="translate(.007)">
            <g id="Grupo_198" data-name="Grupo 198">
                <path id="Caminho_325" d="M61.139 21.965a1.477 1.477 0 0 0 1.477-1.477V4.43A4.435 4.435 0 0 0 58.186 0H4.437a4.435 4.435 0 0 0-4.43 4.43v66.743a4.435 4.435 0 0 0 4.43 4.43h53.749a4.435 4.435 0 0 0 4.43-4.43V60.294a1.477 1.477 0 0 0-2.953 0v10.879a1.478 1.478 0 0 1-1.477 1.477H4.437a1.478 1.478 0 0 1-1.477-1.477V4.43a1.478 1.478 0 0 1 1.477-1.477h53.749a1.478 1.478 0 0 1 1.476 1.477v16.058a1.477 1.477 0 0 0 1.477 1.477z" class="cls-1" data-name="Caminho 325" transform="translate(-.007)"/>
            </g>
        </g>
        <g id="Grupo_201" data-name="Grupo 201" transform="translate(17.726 7.974)">
            <g id="Grupo_200" data-name="Grupo 200">
                <path id="Caminho_326" d="M133.592 54a13.578 13.578 0 0 0-9.32 23.459 1.459 1.459 0 0 0 .159.148 13.559 13.559 0 0 0 18.323 0 1.476 1.476 0 0 0 .159-.148A13.578 13.578 0 0 0 133.592 54zm0 24.217a10.575 10.575 0 0 1-6.422-2.166 7.383 7.383 0 0 1 12.844 0 10.575 10.575 0 0 1-6.422 2.166zm-2.363-11.222v-.96a2.363 2.363 0 1 1 4.725 0v.96a2.363 2.363 0 1 1-4.725 0zm10.918 6.893a10.244 10.244 0 0 0-4.351-3.647 5.288 5.288 0 0 0 1.111-3.246v-.96a5.316 5.316 0 1 0-10.632 0v.96a5.288 5.288 0 0 0 1.111 3.246 10.244 10.244 0 0 0-4.351 3.647 10.632 10.632 0 1 1 17.111 0z" class="cls-2" data-name="Caminho 326" transform="translate(-120.007 -54)"/>
            </g>
        </g>
        <g id="Grupo_203" data-name="Grupo 203" transform="translate(29.835 64.676)">
            <g id="Grupo_202" data-name="Grupo 202">
                <path id="Caminho_327" d="M211.457 438h-7.974a1.477 1.477 0 1 0 0 2.953h7.974a1.477 1.477 0 0 0 0-2.953z" class="cls-1" data-name="Caminho 327" transform="translate(-202.007 -438)"/>
            </g>
        </g>
        <g id="Grupo_205" data-name="Grupo 205" transform="translate(16.84 56.407)">
            <g id="Grupo_204" data-name="Grupo 204">
                <path id="Caminho_328" d="M136.452 382h-20.968a1.477 1.477 0 0 0 0 2.953h20.968a1.477 1.477 0 0 0 0-2.953z" class="cls-1" data-name="Caminho 328" transform="translate(-114.007 -382)"/>
            </g>
        </g>
        <g id="Grupo_207" data-name="Grupo 207" transform="translate(16.84 48.138)">
            <g id="Grupo_206" data-name="Grupo 206">
                <path id="Caminho_329" d="M136.452 326h-20.968a1.477 1.477 0 1 0 0 2.953h20.968a1.477 1.477 0 0 0 0-2.953z" class="cls-1" data-name="Caminho 329" transform="translate(-114.007 -326)"/>
            </g>
        </g>
        <g id="Grupo_209" data-name="Grupo 209" transform="translate(10.532 39.869)">
            <g id="Grupo_208" data-name="Grupo 208">
                <path id="Caminho_330" d="M73.809 270.433a1.476 1.476 0 1 0 .433 1.044 1.488 1.488 0 0 0-.433-1.044z" class="cls-3" data-name="Caminho 330" transform="translate(-71.287 -270)"/>
            </g>
        </g>
        <g id="Grupo_211" data-name="Grupo 211" transform="translate(10.532 48.138)">
            <g id="Grupo_210" data-name="Grupo 210">
                <path id="Caminho_331" d="M73.809 326.433a1.476 1.476 0 1 0 .433 1.044 1.491 1.491 0 0 0-.433-1.044z" class="cls-3" data-name="Caminho 331" transform="translate(-71.287 -326)"/>
            </g>
        </g>
        <g id="Grupo_213" data-name="Grupo 213" transform="translate(10.532 56.407)">
            <g id="Grupo_212" data-name="Grupo 212">
                <path id="Caminho_332" d="M73.809 382.433a1.475 1.475 0 1 0 .433 1.044 1.491 1.491 0 0 0-.433-1.044z" class="cls-3" data-name="Caminho 332" transform="translate(-71.287 -382)"/>
            </g>
        </g>
        <g id="Grupo_215" data-name="Grupo 215" transform="translate(16.84 39.869)">
            <g id="Grupo_214" data-name="Grupo 214">
                <path id="Caminho_333" d="M136.452 270h-20.968a1.477 1.477 0 1 0 0 2.953h20.968a1.477 1.477 0 1 0 0-2.953z" class="cls-1" data-name="Caminho 333" transform="translate(-114.007 -270)"/>
            </g>
        </g>
        <g id="Grupo_217" data-name="Grupo 217" transform="translate(43.948 18.41)">
            <g id="Grupo_216" data-name="Grupo 216">
                <path id="Caminho_334" d="M326.149 125.509a6.2 6.2 0 0 0-8.472 2.27l-18.582 32.185a1.479 1.479 0 0 0-.189.575l-1.306 11.715a1.477 1.477 0 0 0 2.343 1.353l9.492-6.991a1.474 1.474 0 0 0 .4-.451l18.582-32.185a6.209 6.209 0 0 0-2.268-8.471zm-25.241 43.719l.683-6.118 4.274 2.467zm7.11-5.818l-5.627-3.249 14.909-25.827 5.627 3.249zm17.843-30.91l-1.455 2.521-5.627-3.249 1.456-2.521a3.249 3.249 0 0 1 5.627 3.249z" class="cls-4" data-name="Caminho 334" transform="translate(-297.589 -124.675)"/>
            </g>
        </g>
    </g>
</svg>
