<svg xmlns="http://www.w3.org/2000/svg" id="win" width="89.071" height="89.117" viewBox="0 0 89.071 89.117">
    <defs>
        <style>
            .cls-1{fill:#3b334a}.cls-2{fill:#f31357}.cls-3{fill:#7123db}.cls-4{fill:#1feaa4}
        </style>
    </defs>
    <path id="Caminho_303" d="M42.169 78.453A5.568 5.568 0 0 0 36.6 84.02a12.629 12.629 0 0 1-3.195 8.421 9.742 9.742 0 1 0-19.079 0 12.679 12.679 0 0 1-3.194-8.421A5.567 5.567 0 1 0 0 84.02a23.823 23.823 0 0 0 13.625 21.557v46.553a1.74 1.74 0 0 0 3.479 0v-26.911h15.74v19.952a1.74 1.74 0 0 0 3.48 0v-40.8a23.986 23.986 0 0 0 4.415-3.482 23.706 23.706 0 0 0 7-16.87 5.573 5.573 0 0 0-5.57-5.566zM23.868 84.2a6.263 6.263 0 1 1-6.268 6.263 6.27 6.27 0 0 1 6.268-6.263zm14.41 14.23a20.548 20.548 0 0 1-4.54 3.425 1.739 1.739 0 0 0-.895 1.52v18.364H17.1v-17.29a1.74 1.74 0 0 0-1.069-1.605A20.359 20.359 0 0 1 3.479 84.02a2.088 2.088 0 0 1 4.175 0 16.232 16.232 0 0 0 16.213 16.213A16.23 16.23 0 0 0 40.081 84.02a2.088 2.088 0 0 1 4.175 0 20.252 20.252 0 0 1-5.978 14.41zm0 0" class="cls-1" data-name="Caminho 303" transform="translate(0 -64.798)"/>
    <path id="Caminho_304" d="M190.431 491.75a1.74 1.74 0 1 0 1.23.509 1.749 1.749 0 0 0-1.23-.509zm0 0" class="cls-2" data-name="Caminho 304" transform="translate(-155.848 -406.157)"/>
    <path id="Caminho_305" d="M135.338 387.719a1.74 1.74 0 0 0-1.74 1.74v18.152a1.74 1.74 0 1 0 3.479 0v-18.152a1.74 1.74 0 0 0-1.739-1.74zm0 0" class="cls-1" data-name="Caminho 305" transform="translate(-110.344 -320.234)"/>
    <path id="Caminho_306" d="M279.65 215.215a5.567 5.567 0 0 0-5.567 5.567 12.628 12.628 0 0 1-3.194 8.421 9.742 9.742 0 1 0-19.08 0 12.678 12.678 0 0 1-3.194-8.421 5.567 5.567 0 1 0-11.134 0 23.838 23.838 0 0 0 .833 6.258 1.739 1.739 0 0 0 3.357-.913 20.385 20.385 0 0 1-.711-5.345 2.088 2.088 0 1 1 4.175 0A16.232 16.232 0 0 0 261.348 237a16.23 16.23 0 0 0 16.213-16.214 2.088 2.088 0 0 1 4.175 0 20.253 20.253 0 0 1-5.98 14.409 20.491 20.491 0 0 1-4.539 3.425 1.741 1.741 0 0 0-.895 1.521V258.5h-15.737v-17.29a1.74 1.74 0 0 0-1.069-1.605 20.429 20.429 0 0 1-4.746-2.79 1.74 1.74 0 0 0-2.151 2.735 23.927 23.927 0 0 0 4.487 2.787v22.748a1.74 1.74 0 0 0 3.479 0v-3.105h15.74v3.107a1.74 1.74 0 0 0 3.479 0v-23.953a23.973 23.973 0 0 0 4.415-3.483 23.708 23.708 0 0 0 7-16.87 5.573 5.573 0 0 0-5.569-5.566zm-18.3 5.747a6.263 6.263 0 1 1-6.263 6.263 6.27 6.27 0 0 1 6.262-6.264zm0 0" class="cls-1" data-name="Caminho 306" transform="translate(-196.145 -177.755)"/>
    <path id="Caminho_307" d="M262.367 308.941a1.74 1.74 0 1 0-2.883 1.948l.02.029a1.74 1.74 0 0 0 2.894-1.93zm0 0" class="cls-2" data-name="Caminho 307" transform="translate(-214.072 -254.535)"/>
    <path id="Caminho_308" d="M439.513 101.831a1.74 1.74 0 0 0 1.74-1.739v-2.4a1.74 1.74 0 0 0-3.48 0v2.4a1.74 1.74 0 0 0 1.74 1.739zm0 0" class="cls-3" data-name="Caminho 308" transform="translate(-361.576 -79.249)"/>
    <path id="Caminho_309" d="M439.513 167.987a1.74 1.74 0 0 0 1.74-1.74v-2.4a1.74 1.74 0 0 0-3.48 0v2.4a1.74 1.74 0 0 0 1.74 1.74zm0 0" class="cls-2" data-name="Caminho 309" transform="translate(-361.576 -133.89)"/>
    <path id="Caminho_310" d="M465.689 139.409h2.4a1.74 1.74 0 0 0 0-3.479h-2.4a1.74 1.74 0 1 0 0 3.479zm0 0" class="cls-4" data-name="Caminho 310" transform="translate(-383.196 -112.27)"/>
    <path id="Caminho_311" d="M399.533 139.409h2.4a1.74 1.74 0 1 0 0-3.479h-2.4a1.74 1.74 0 1 0 0 3.479zm0 0" class="cls-4" data-name="Caminho 311" transform="translate(-328.554 -112.27)"/>
    <path id="Caminho_312" d="M335.568 5.882a1.74 1.74 0 0 0 1.739-1.74V1.74a1.74 1.74 0 1 0-3.479 0v2.4a1.74 1.74 0 0 0 1.74 1.742zm0 0" class="cls-3" data-name="Caminho 312" transform="translate(-275.723)"/>
    <path id="Caminho_313" d="M335.568 72.035a1.74 1.74 0 0 0 1.739-1.74v-2.4a1.74 1.74 0 1 0-3.479 0v2.4a1.74 1.74 0 0 0 1.74 1.74zm0 0" class="cls-2" data-name="Caminho 313" transform="translate(-275.723 -54.638)"/>
    <path id="Caminho_314" d="M361.743 43.46h2.4a1.74 1.74 0 1 0 0-3.479h-2.4a1.74 1.74 0 0 0 0 3.479zm0 0" class="cls-4" data-name="Caminho 314" transform="translate(-297.343 -33.022)"/>
    <path id="Caminho_315" d="M295.588 43.46h2.4a1.74 1.74 0 1 0 0-3.479h-2.4a1.74 1.74 0 1 0 0 3.479zm0 0" class="cls-4" data-name="Caminho 315" transform="translate(-242.701 -33.022)"/>
</svg>
