<svg xmlns="http://www.w3.org/2000/svg" width="87.857" height="87.843" viewBox="0 0 87.857 87.843">
    <defs>
        <style>
            .cls-1{fill:#3b334a}.cls-2{fill:#1feaa4}.cls-3{fill:#7123db}.cls-4{fill:#f31357}
        </style>
    </defs>
    <g id="advertising" transform="translate(0 -.04)">
        <g id="Grupo_133" data-name="Grupo 133" transform="translate(0 .041)">
            <g id="Grupo_132" data-name="Grupo 132">
                <path id="Caminho_274" d="M83.261 33.446a20.488 20.488 0 0 0-31.75-25.9 10.5 10.5 0 0 1-10.811 3.71 26.28 26.28 0 0 0-10.393-.744A26.57 26.57 0 0 0 7.568 33.047a26.187 26.187 0 0 0 2.521 15.322 10.237 10.237 0 0 0-1.171 20.386l1.579 16.2a2.928 2.928 0 0 0 2.928 2.928h8.541a2.927 2.927 0 0 0 2.222-1.025 2.992 2.992 0 0 0 .644-2.489l-3.914-15.516h.732a36.539 36.539 0 0 1 4.839.348 32.145 32.145 0 0 0 29.2 18.681q1.449 0 2.928-.13A32.441 32.441 0 0 0 87.743 58.3a31.962 31.962 0 0 0-4.791-19.658 4.466 4.466 0 0 1 .309-5.196zM8.792 65.779a7.319 7.319 0 0 1 0-14.345zm13.174 19.177l-8.549-.146-1.551-15.957H17.9zM11.72 65.926V51.288h2.928v14.638zm9.926 0h-4.071V51.288h4.071a39.424 39.424 0 0 0 12.5-2.029L41 46.975v23.263l-6.852-2.284a39.43 39.43 0 0 0-12.502-2.028zm63.17-7.859a29.23 29.23 0 0 1-54.725 11.785c1.051.25 2.1.536 3.128.878l16.1 5.366a1.457 1.457 0 0 0 1.922-1.388V67.39a5.855 5.855 0 0 0 5.859-5.856v-5.855a5.855 5.855 0 0 0-5.855-5.855V42.5a1.464 1.464 0 0 0-1.926-1.389l-16.1 5.366a36.548 36.548 0 0 1-11.573 1.883h-8.221a23.393 23.393 0 0 1 26.488-34.283A13.419 13.419 0 0 0 53.772 9.4a17.556 17.556 0 1 1 27.21 22.193 7.4 7.4 0 0 0-.52 8.6 29.059 29.059 0 0 1 4.354 17.874zM43.924 71.215V46l4.391-1.464v28.142zm7.319-6.753V52.751a2.928 2.928 0 0 1 2.928 2.928v5.855a2.928 2.928 0 0 1-2.928 2.928z" class="cls-1" data-name="Caminho 274" transform="translate(0 -.041)"/>
            </g>
            <g id="Grupo_159" data-name="Grupo 159" transform="rotate(89 -.003 61.934)">
                <g id="Grupo_110" data-name="Grupo 110">
                    <path id="Caminho_263" d="M450.074 124.21a1.4 1.4 0 0 0-1.94 0l-.987.987a1.4 1.4 0 0 0 .987 2.383 1.4 1.4 0 0 0 .987-.409l.987-.987a1.4 1.4 0 0 0-.034-1.974z" class="cls-2" data-name="Caminho 263" transform="translate(-446.739 -123.818)"/>
                </g>
            </g>
            <g id="Grupo_160" data-name="Grupo 160" transform="rotate(89 3.022 60.956)">
                <g id="Grupo_112" data-name="Grupo 112">
                    <path id="Caminho_264" d="M425.5 112a1.4 1.4 0 0 0-1.4 1.4v1.4a1.4 1.4 0 1 0 2.792 0v-1.4a1.4 1.4 0 0 0-1.392-1.4z" class="cls-2" data-name="Caminho 264" transform="translate(-424.105 -112)"/>
                </g>
            </g>
            <g id="Grupo_161" data-name="Grupo 161" transform="rotate(89 4.433 57.421)">
                <g id="Grupo_114" data-name="Grupo 114">
                    <path id="Caminho_265" d="M399.269 125.2l-.987-.987a1.4 1.4 0 0 0-1.974 1.974l.987.987a1.4 1.4 0 0 0 1.974-1.974z" class="cls-2" data-name="Caminho 265" transform="translate(-395.915 -123.818)"/>
                </g>
            </g>
        </g>
        <g id="Grupo_135" data-name="Grupo 135" transform="translate(20.503 60.071)">
            <g id="Grupo_134" data-name="Grupo 134">
                <path id="Ret창ngulo_116" d="M0 0h5.855v2.928H0z" data-name="Ret창ngulo 116"/>
            </g>
        </g>
        <g id="Grupo_137" data-name="Grupo 137" transform="translate(20.503 54.215)">
            <g id="Grupo_136" data-name="Grupo 136">
                <path id="Ret창ngulo_117" d="M0 0h5.855v2.928H0z" data-name="Ret창ngulo 117"/>
            </g>
        </g>
        <g id="Grupo_139" data-name="Grupo 139" transform="translate(62.954 13.228)">
            <g id="Grupo_138" data-name="Grupo 138">
                <path id="Caminho_275" d="M355.514 78.617a1.465 1.465 0 0 0-.406-.406l-8.783-5.855a1.464 1.464 0 0 0-2.276 1.218v11.711a1.464 1.464 0 0 0 2.276 1.218l8.783-5.855a1.464 1.464 0 0 0 .406-2.031zm-8.537 3.931V76.31l4.684 3.119z" class="cls-2" data-name="Caminho 275" transform="translate(-344.049 -72.11)"/>
            </g>
        </g>
        <g id="Grupo_141" data-name="Grupo 141" transform="translate(54.171 7.373)">
            <g id="Grupo_140" data-name="Grupo 140">
                <path id="Caminho_276" d="M309.223 40.112A13.174 13.174 0 1 0 322.4 53.286a13.174 13.174 0 0 0-13.177-13.174zm0 23.421a10.247 10.247 0 1 1 10.247-10.247 10.247 10.247 0 0 1-10.247 10.247z" data-name="Caminho 276" transform="translate(-296.049 -40.112)"/>
            </g>
        </g>
        <g id="Grupo_143" data-name="Grupo 143" transform="translate(16.111 16.156)">
            <g id="Grupo_142" data-name="Grupo 142">
                <path id="Caminho_277" d="M110.006 98.359h-1.464a1.464 1.464 0 0 1-1.464-1.464V92.5a4.391 4.391 0 0 0-8.783 0v4.391a1.464 1.464 0 0 1-1.464 1.464 1.464 1.464 0 0 0-1.464-1.464h-5.854a1.464 1.464 0 0 0-1.464 1.464v16.1a1.464 1.464 0 0 0 1.464 1.464h5.855a1.464 1.464 0 0 0 1.464-1.464h13.174a4.391 4.391 0 0 0 4.391-4.391v-7.314a4.392 4.392 0 0 0-4.391-4.391zM93.9 113h-2.923V99.823H93.9zm17.566-2.928a1.464 1.464 0 0 1-1.464 1.464h-13.17v-10.25a4.391 4.391 0 0 0 4.391-4.391V92.5a1.464 1.464 0 1 1 2.928 0v4.391a4.391 4.391 0 0 0 4.391 4.391h1.464a1.464 1.464 0 0 1 1.464 1.464z" class="cls-3" data-name="Caminho 277" transform="translate(-88.049 -88.112)"/>
            </g>
        </g>
        <g id="Grupo_145" data-name="Grupo 145" transform="translate(64.913 51.285)">
            <g id="Grupo_144" data-name="Grupo 144">
                <path id="Caminho_278" d="M366.076 282.008l-.624-.627a4.407 4.407 0 0 0-5.541-.547l-1.582 1.055-1.582-1.055a4.4 4.4 0 0 0-5.541.547l-.626.627a4.392 4.392 0 0 0 0 6.21l6.713 6.712a1.464 1.464 0 0 0 2.07 0l6.713-6.712a4.392 4.392 0 0 0 0-6.21zm-2.067 4.139l-5.678 5.677-5.677-5.671a1.464 1.464 0 0 1 0-2.07l.625-.625a1.464 1.464 0 0 1 1.847-.183l2.393 1.6a1.464 1.464 0 0 0 1.625 0l2.395-1.6a1.464 1.464 0 0 1 1.846.182v-.006l.624.625a1.464 1.464 0 0 1 0 2.071z" class="cls-4" data-name="Caminho 278" transform="translate(-349.294 -280.1)"/>
            </g>
        </g>
        <g id="Grupo_155" data-name="Grupo 155" transform="translate(1.473 4.445)">
            <g id="Grupo_154" data-name="Grupo 154">
                <path id="Caminho_279" d="M8.049 59.244h2.928c0-19.864 11.779-32.2 30.74-32.2v-2.932c-20.767 0-33.668 13.467-33.668 35.132z" class="cls-4" data-name="Caminho 279" transform="translate(-8.049 -24.112)"/>
            </g>
        </g>
    </g>
</svg>
