<svg xmlns="http://www.w3.org/2000/svg" width="83.771" height="83.8" viewBox="0 0 83.771 83.8">
    <defs>
        <style>
            .cls-1{fill:#3b334a}.cls-2{fill:#7123db}.cls-3{fill:#1feaa4}.cls-4{fill:#f31357}
        </style>
    </defs>
    <g id="confetti" transform="translate(-.082)">
        <g id="Grupo_79" data-name="Grupo 79" transform="translate(.082 19.802)">
            <g id="Grupo_78" data-name="Grupo 78">
                <path id="Caminho_248" d="M57.207 146.219a1.4 1.4 0 0 0-2.627.947l.02.053c1.273 3.323 1.365 5.864.251 6.981-1.351 1.349-4.718.927-9.006-1.125a59.718 59.718 0 0 1-15.454-11.532c-10.936-10.937-15.448-21.669-12.657-24.46a3.814 3.814 0 0 1 3.158-.737 1.4 1.4 0 0 0 .271-2.778 6.429 6.429 0 0 0-5.4 1.536c-5.115 5.114 2.7 18.454 12.657 28.408a62.438 62.438 0 0 0 16.223 12.075 27.5 27.5 0 0 0 3.367 1.347l-9.919 3.761A39.517 39.517 0 0 1 13.1 129.918a1.4 1.4 0 0 0-2.759.433 42.269 42.269 0 0 0 23.977 31.77L17.99 168.3a1.371 1.371 0 0 0-.279-.332 19.452 19.452 0 0 1-7.2-13.519l-.652-7.849a1.379 1.379 0 0 0-1.469-1.284h-.043a1.4 1.4 0 0 0-1.281 1.5v.01l.659 7.842a22.24 22.24 0 0 0 7.387 14.708l-11.646 4.418L5.56 165.2a1.4 1.4 0 0 0-2.714-.662L.123 175.707a1.4 1.4 0 0 0 1.851 1.638L53.63 157.8a1.3 1.3 0 0 0 .232-.145 5.424 5.424 0 0 0 2.964-1.478c1.384-1.386 2.574-4.238.381-9.958z" class="cls-1" data-name="Caminho 248" transform="translate(-.082 -113.468)"/>
            </g>
        </g>
        <g id="Grupo_81" data-name="Grupo 81" transform="translate(40.607 46.034)">
            <g id="Grupo_80" data-name="Grupo 80">
                <path id="Caminho_249" d="M262.069 266.7a45.975 45.975 0 0 0-23.655-2.3l-4.988.838a1.4 1.4 0 0 0 .461 2.753l4.987-.831a43.15 43.15 0 0 1 22.215 2.158 1.439 1.439 0 0 0 .49.082 1.4 1.4 0 0 0 .49-2.7z" class="cls-1" data-name="Caminho 249" transform="translate(-232.294 -263.781)"/>
            </g>
        </g>
        <g id="Grupo_83" data-name="Grupo 83" transform="translate(43.37 26.526)">
            <g id="Grupo_82" data-name="Grupo 82">
                <path id="Caminho_250" d="M280.1 152.793a1.4 1.4 0 0 0-1.861-.66l-29.319 13.961a1.4 1.4 0 0 0-.661 1.861 1.4 1.4 0 0 0 1.861.661l29.319-13.961a1.4 1.4 0 0 0 .661-1.862z" class="cls-1" data-name="Caminho 250" transform="translate(-248.126 -151.997)"/>
            </g>
        </g>
        <g id="Grupo_85" data-name="Grupo 85" transform="translate(27.044 8.357)">
            <g id="Grupo_84" data-name="Grupo 84">
                <path id="Caminho_251" d="M161.522 49.006a1.4 1.4 0 0 0-2.736.556c0 .017.007.033.011.05a39.054 39.054 0 0 1-2.084 23.607l-2.03 4.871a1.4 1.4 0 0 0 .75 1.821 1.376 1.376 0 0 0 .536.107 1.4 1.4 0 0 0 1.289-.859l2.031-4.865a41.828 41.828 0 0 0 2.233-25.288z" class="cls-1" data-name="Caminho 251" transform="translate(-154.576 -47.887)"/>
            </g>
        </g>
        <g id="Grupo_87" data-name="Grupo 87" transform="translate(72.685 50.26)">
            <g id="Grupo_86" data-name="Grupo 86">
                <path id="Caminho_252" d="M420.293 288a4.188 4.188 0 1 0 4.188 4.188 4.188 4.188 0 0 0-4.188-4.188zm0 5.584a1.4 1.4 0 1 1 1.4-1.4 1.4 1.4 0 0 1-1.4 1.4z" class="cls-2" data-name="Caminho 252" transform="translate(-416.105 -288)"/>
            </g>
        </g>
        <g id="Grupo_89" data-name="Grupo 89" transform="translate(39.178 11.169)">
            <g id="Grupo_88" data-name="Grupo 88">
                <path id="Caminho_253" d="M228.293 64a4.188 4.188 0 1 0 4.188 4.188A4.188 4.188 0 0 0 228.293 64zm0 5.584a1.4 1.4 0 1 1 1.4-1.4 1.4 1.4 0 0 1-1.4 1.4z" class="cls-3" data-name="Caminho 253" transform="translate(-224.105 -64)"/>
            </g>
        </g>
        <g id="Grupo_91" data-name="Grupo 91" transform="translate(28.009)">
            <g id="Grupo_90" data-name="Grupo 90">
                <circle id="Elipse_72" cx="2.792" cy="2.792" r="2.792" class="cls-4" data-name="Elipse 72"/>
            </g>
        </g>
        <g id="Grupo_93" data-name="Grupo 93" transform="translate(68.496 6.981)">
            <g id="Grupo_92" data-name="Grupo 92">
                <path id="Caminho_254" d="M393.5 40a1.4 1.4 0 0 0-1.4 1.4v1.4a1.4 1.4 0 1 0 2.792 0v-1.4A1.4 1.4 0 0 0 393.5 40z" class="cls-2" data-name="Caminho 254" transform="translate(-392.105 -40)"/>
            </g>
        </g>
        <g id="Grupo_95" data-name="Grupo 95" transform="translate(68.496)">
            <g id="Grupo_94" data-name="Grupo 94">
                <path id="Caminho_255" d="M393.5 0a1.4 1.4 0 0 0-1.4 1.4v1.4a1.4 1.4 0 1 0 2.792 0V1.4A1.4 1.4 0 0 0 393.5 0z" class="cls-2" data-name="Caminho 255" transform="translate(-392.105)"/>
            </g>
        </g>
        <g id="Grupo_97" data-name="Grupo 97" transform="translate(71.288 4.188)">
            <g id="Grupo_96" data-name="Grupo 96">
                <path id="Caminho_256" d="M410.9 24h-1.4a1.4 1.4 0 1 0 0 2.792h1.4a1.4 1.4 0 1 0 0-2.792z" class="cls-2" data-name="Caminho 256" transform="translate(-408.105 -24)"/>
            </g>
        </g>
        <g id="Grupo_99" data-name="Grupo 99" transform="translate(64.308 4.188)">
            <g id="Grupo_98" data-name="Grupo 98">
                <path id="Caminho_257" d="M370.9 24h-1.4a1.4 1.4 0 0 0 0 2.792h1.4a1.4 1.4 0 0 0 0-2.792z" class="cls-2" data-name="Caminho 257" transform="translate(-368.105 -24)"/>
            </g>
        </g>
        <g id="Grupo_101" data-name="Grupo 101" transform="translate(51.713 15.328)">
            <g id="Grupo_100" data-name="Grupo 100">
                <path id="Caminho_258" d="M304.343 87.832h-7.01a1.4 1.4 0 0 0-1.4 1.4v7.01a1.4 1.4 0 0 0 1.4 1.4h7.01a1.4 1.4 0 0 0 1.4-1.4v-7.01a1.4 1.4 0 0 0-1.4-1.4zm-1.4 7.01h-4.218v-4.218h4.218z" class="cls-3" data-name="Caminho 258" transform="translate(-295.937 -87.832)"/>
            </g>
        </g>
        <g id="Grupo_103" data-name="Grupo 103" transform="translate(33.593 26.545)">
            <g id="Grupo_102" data-name="Grupo 102">
                <path id="Caminho_259" d="M208.462 152.547a1.4 1.4 0 0 0-1.932-.1l-13.961 12.565a1.4 1.4 0 1 0 1.868 2.075L208.4 154.52a1.4 1.4 0 0 0 .062-1.973z" class="cls-1" data-name="Caminho 259" transform="translate(-192.107 -152.105)"/>
            </g>
        </g>
        <g id="Grupo_105" data-name="Grupo 105" transform="translate(74.081 32.111)">
            <g id="Grupo_104" data-name="Grupo 104">
                <path id="Caminho_260" d="M425.5 184a1.4 1.4 0 0 0-1.4 1.4v1.4a1.4 1.4 0 1 0 2.792 0v-1.4a1.4 1.4 0 0 0-1.392-1.4z" class="cls-3" data-name="Caminho 260" transform="translate(-424.105 -184)"/>
            </g>
        </g>
        <g id="Grupo_107" data-name="Grupo 107" transform="translate(78.047 30.492)">
            <g id="Grupo_106" data-name="Grupo 106">
                <path id="Caminho_261" d="M450.189 176.1l-.987-.987a1.4 1.4 0 0 0-1.974 1.974l.987.987a1.4 1.4 0 0 0 1.974-1.974z" class="cls-3" data-name="Caminho 261" transform="translate(-446.835 -174.722)"/>
            </g>
        </g>
        <g id="Grupo_109" data-name="Grupo 109" transform="translate(79.665 26.526)">
            <g id="Grupo_108" data-name="Grupo 108">
                <path id="Caminho_262" d="M458.9 152h-1.4a1.4 1.4 0 1 0 0 2.792h1.4a1.4 1.4 0 0 0 0-2.792z" class="cls-3" data-name="Caminho 262" transform="translate(-456.105 -152)"/>
            </g>
        </g>
        <g id="Grupo_111" data-name="Grupo 111" transform="translate(78.031 21.608)">
            <g id="Grupo_110" data-name="Grupo 110">
                <path id="Caminho_263" d="M450.074 124.21a1.4 1.4 0 0 0-1.94 0l-.987.987a1.4 1.4 0 0 0 .987 2.383 1.4 1.4 0 0 0 .987-.409l.987-.987a1.4 1.4 0 0 0-.034-1.974z" class="cls-3" data-name="Caminho 263" transform="translate(-446.739 -123.818)"/>
            </g>
        </g>
        <g id="Grupo_113" data-name="Grupo 113" transform="translate(74.081 19.546)">
            <g id="Grupo_112" data-name="Grupo 112">
                <path id="Caminho_264" d="M425.5 112a1.4 1.4 0 0 0-1.4 1.4v1.4a1.4 1.4 0 1 0 2.792 0v-1.4a1.4 1.4 0 0 0-1.392-1.4z" class="cls-3" data-name="Caminho 264" transform="translate(-424.105 -112)"/>
            </g>
        </g>
        <g id="Grupo_115" data-name="Grupo 115" transform="translate(69.161 21.608)">
            <g id="Grupo_114" data-name="Grupo 114">
                <path id="Caminho_265" d="M399.269 125.2l-.987-.987a1.4 1.4 0 0 0-1.974 1.974l.987.987a1.4 1.4 0 0 0 1.974-1.974z" class="cls-3" data-name="Caminho 265" transform="translate(-395.915 -123.818)"/>
            </g>
        </g>
        <g id="Grupo_117" data-name="Grupo 117" transform="translate(.084 .063)">
            <g id="Grupo_116" data-name="Grupo 116">
                <path id="Caminho_266" d="M16.782 6.335a1.4 1.4 0 0 0-1.127-.949l-4.1-.6L9.73 1.077a1.453 1.453 0 0 0-2.5 0L5.389 4.789l-4.1.6a1.4 1.4 0 0 0-.776 2.38l2.964 2.89-.7 4.081a1.4 1.4 0 0 0 2.027 1.477l3.665-1.932 3.665 1.927a1.4 1.4 0 0 0 2.026-1.472l-.7-4.081 2.965-2.89a1.4 1.4 0 0 0 .357-1.434zm-5.8 2.834a1.4 1.4 0 0 0-.4 1.234l.346 2.017-1.808-.954a1.4 1.4 0 0 0-1.3 0l-1.815.952.351-2.018a1.4 1.4 0 0 0-.4-1.233L4.493 7.741l2.026-.295a1.4 1.4 0 0 0 1.051-.764l.9-1.833.9 1.833a1.4 1.4 0 0 0 1.05.764l2.024.295z" class="cls-4" data-name="Caminho 266" transform="translate(-.095 -.361)"/>
            </g>
        </g>
        <g id="Grupo_119" data-name="Grupo 119" transform="translate(62.945 60.039)">
            <g id="Grupo_118" data-name="Grupo 118">
                <path id="Caminho_267" d="M376.487 353.973h-.006l-.575-.863a21.068 21.068 0 0 0-14.018-9.065 1.4 1.4 0 0 0-.461 2.753 18.266 18.266 0 0 1 10.654 5.939 8.237 8.237 0 0 0-5.585 3.835 5.585 5.585 0 0 0 9.752 5.445 8.1 8.1 0 0 0 .906-3.584 6.821 6.821 0 0 1 .306 7.25 1.4 1.4 0 1 0 2.4 1.425.824.824 0 0 0 .036-.065 9.746 9.746 0 0 0-3.409-13.07zm-2.674 6.682a2.792 2.792 0 1 1-4.889-2.7l.013-.023a5.232 5.232 0 0 1 3.781-2.46 1.42 1.42 0 0 1 .7.162c1.176.659 1.238 3.51.395 5.021z" class="cls-4" data-name="Caminho 267" transform="translate(-360.294 -344.031)"/>
            </g>
        </g>
    </g>
</svg>
