<svg xmlns="http://www.w3.org/2000/svg" width="10" height="17" viewBox="0 0 9.56 16.85"><path d="M3.38,9.51A.54.54,0,0,0,2.83,9H1V6.69H2.83a.55.55,0,0,0,.55-.54V4.4A3.12,3.12,0,0,1,6.69,1H8.58V3.07H7.36a1.66,1.66,0,0,0-1.29.45,1.69,1.69,0,0,0-.33,1.15V6.14a.54.54,0,0,0,.54.55h2.2V9H6.28a.54.54,0,0,0-.54.54v6.36H3.38Zm2.53,7.34A.81.81,0,0,0,6.72,16V10H8.65a.82.82,0,0,0,.82-.82V6.52a.82.82,0,0,0-.82-.82H6.72v-1c0-.33,0-.46.09-.5s.13-.11.55-.11H8.75a.82.82,0,0,0,.81-.82V.82A.82.82,0,0,0,8.75,0H6.69A4.24,4.24,0,0,0,3.57,1.21,4.45,4.45,0,0,0,2.39,4.4V5.7H.82A.82.82,0,0,0,0,6.52V9.13A.82.82,0,0,0,.82,10H2.39V16a.82.82,0,0,0,.82.82Z" fill="#c9c1d5"/></svg>
