<svg xmlns="http://www.w3.org/2000/svg" width="47" height="47" viewBox="0 0 47 47"><g><g><g><path fill="#f6f5f8" d="M39.037 3.54h1.445v1.084h-1.445z"/></g><g><path fill="#f6f5f8" d="M39.037 9.685h1.445v1.084h-1.445z"/></g><g><path fill="#f6f5f8" d="M40.321 10.046h-2.369V8.6h2.37a.161.161 0 0 0 .068-.307l-1.875-.878a1.612 1.612 0 0 1-.924-1.455c0-.937.76-1.696 1.697-1.697h2.279v1.446h-2.279a.252.252 0 0 0-.251.251c0 .062.036.118.092.145l1.875.878a1.607 1.607 0 0 1-.683 3.063z"/></g><g><path fill="#f6f5f8" d="M5.783 36.793H7.23v1.085H5.783z"/></g><g><path fill="#f6f5f8" d="M5.783 42.938H7.23v1.084H5.783z"/></g><g><path fill="#f6f5f8" d="M7.068 43.3h-2.37v-1.446h2.37a.16.16 0 1 0 .072-.307l-1.878-.879a1.612 1.612 0 0 1-.925-1.454c.001-.937.76-1.697 1.698-1.698h2.278v1.446H6.035a.252.252 0 0 0-.252.252c0 .062.037.118.093.144l1.874.879a1.607 1.607 0 0 1-.682 3.063z"/></g><g><path fill="#f6f5f8" d="M23.133 36.793a12.94 12.94 0 0 1-8.16-2.891h8.883a2.892 2.892 0 0 0 0-5.783h-.796a3.62 3.62 0 0 0-3.542-2.892h-1.632a2.169 2.169 0 1 1 0-4.337h1.399a2.982 2.982 0 0 0 2.113-.89c.542-.546.84-1.288.826-2.057a2.906 2.906 0 0 0-2.891-2.837h-5.871a12.932 12.932 0 0 1 15.604-2.891h-.873a3.615 3.615 0 0 0 0 7.229h2.53a1.084 1.084 0 1 1 0 2.169h-2.168a2.53 2.53 0 1 0 0 5.06h.433a3.62 3.62 0 0 0 3.543 2.891h2.24a13.012 13.012 0 0 1-11.638 7.23zM10.12 23.781a12.935 12.935 0 0 1 2.2-7.229h7.012a1.452 1.452 0 0 1 1.446 1.419c.006.38-.143.747-.413 1.016a1.524 1.524 0 0 1-1.084.457h-1.398a3.615 3.615 0 0 0 0 7.229h1.634c1.198 0 2.169.97 2.169 2.169v.722h2.169a1.446 1.446 0 0 1 0 2.892H13.462a12.947 12.947 0 0 1-3.341-8.675zm26.024 0a12.949 12.949 0 0 1-.759 4.338h-2.855a2.169 2.169 0 0 1-2.17-2.169v-.723h-1.806a1.084 1.084 0 1 1 0-2.169h2.168a2.53 2.53 0 1 0 0-5.06h-2.53a2.169 2.169 0 0 1 0-4.337h3.1a12.987 12.987 0 0 1 4.852 10.12zM23.133 9.323c-7.985 0-14.458 6.473-14.458 14.458S15.148 38.24 23.133 38.24 37.59 31.766 37.59 23.781C37.58 15.8 31.114 9.332 23.133 9.323z"/></g><g><path fill="#f6f5f8" d="M39.76 2.094a5.06 5.06 0 1 1-5.06 5.06 5.067 5.067 0 0 1 5.06-5.06zm0 11.567a6.506 6.506 0 1 0-6.507-6.506 6.513 6.513 0 0 0 6.507 6.506z"/></g><g><path fill="#f6f5f8" d="M6.506 45.468a5.06 5.06 0 1 1 5.06-5.06 5.067 5.067 0 0 1-5.06 5.06zm0-11.566a6.506 6.506 0 1 0 6.506 6.506 6.513 6.513 0 0 0-6.506-6.506z"/></g><g><path fill="#f6f5f8" d="M2.934 25.095a19.98 19.98 0 0 1-.042-1.314v-.084H1.446v.084c0 .473.015.942.045 1.408z"/></g><g><path fill="#f6f5f8" d="M30.15 3.264c-.473-.163-.954-.31-1.43-.434l-.374 1.396c.444.118.892.257 1.334.408z"/></g><g><path fill="#f6f5f8" d="M10.027 8.368l-.94-1.1c-.378.322-.749.66-1.104 1.007l1.012 1.033c.33-.323.679-.64 1.032-.94z"/></g><g><path fill="#f6f5f8" d="M1.752 27.416c.084.49.185.983.302 1.465l1.405-.34c-.109-.45-.203-.91-.281-1.368z"/></g><g><path fill="#f6f5f8" d="M3.203 20.23l-1.423-.254c-.087.484-.158.983-.21 1.48l1.437.157c.05-.467.115-.932.196-1.383z"/></g><g><path fill="#f6f5f8" d="M4.108 16.867l-1.361-.496c-.172.47-.327.949-.463 1.422l1.39.4c.13-.442.274-.888.434-1.326z"/></g><g><path fill="#f6f5f8" d="M22.82 3.54l-.02-1.446a22.64 22.64 0 0 0-1.493.073l.121 1.445c.46-.04.93-.063 1.392-.072z"/></g><g><path fill="#f6f5f8" d="M4.573 31.84a17.767 17.767 0 0 1-.514-1.296l-1.363.486c.168.469.354.94.553 1.39z"/></g><g><path fill="#f6f5f8" d="M7.575 10.847l-1.11-.926c-.32.383-.628.781-.918 1.182l1.176.846c.266-.374.554-.746.852-1.102z"/></g><g><path fill="#f6f5f8" d="M12.863 6.344L12.126 5.1c-.434.255-.854.526-1.258.805l.818 1.19c.378-.26.775-.512 1.177-.75z"/></g><g><path fill="#f6f5f8" d="M5.582 13.707l-1.254-.723a21.7 21.7 0 0 0-.7 1.322l1.3.634c.2-.412.421-.827.654-1.233z"/></g><g><path fill="#f6f5f8" d="M19.353 3.893l-.269-1.42c-.484.09-.975.203-1.458.329l.368 1.398c.452-.119.908-.222 1.36-.307z"/></g><g><path fill="#f6f5f8" d="M26.525 2.36c-.494-.078-.994-.14-1.485-.182l-.126 1.44c.458.04.924.097 1.385.17z"/></g><g><path fill="#f6f5f8" d="M16.001 4.837l-.51-1.353c-.463.175-.927.37-1.379.579l.605 1.313c.42-.195.853-.376 1.284-.54z"/></g><g><path fill="#f6f5f8" d="M41.692 15.722c.186.423.362.86.514 1.297l1.363-.486c-.167-.47-.353-.94-.552-1.391z"/></g><g><path fill="#f6f5f8" d="M44.513 20.147c-.084-.49-.185-.983-.302-1.465l-1.405.34c.11.45.204.91.282 1.367z"/></g><g><path fill="#f6f5f8" d="M23.445 44.022l.021 1.446c.496-.007.999-.032 1.493-.072l-.122-1.446c-.46.04-.93.064-1.392.072z"/></g><g><path fill="#f6f5f8" d="M40.683 33.856l1.255.723c.249-.434.485-.88.7-1.322l-1.301-.634c-.199.411-.42.826-.654 1.233z"/></g><g><path fill="#f6f5f8" d="M42.157 30.696l1.359.496c.172-.47.327-.95.463-1.422l-1.39-.4a20.29 20.29 0 0 1-.432 1.326z"/></g><g><path fill="#f6f5f8" d="M38.69 36.715l1.11.926c.32-.383.629-.78.918-1.181l-1.172-.846c-.27.373-.557.746-.856 1.101z"/></g><g><path fill="#f6f5f8" d="M43.062 27.332l1.424.255c.087-.485.157-.984.21-1.481l-1.437-.156c-.05.467-.116.931-.197 1.382z"/></g><g><path fill="#f6f5f8" d="M43.331 22.467c.029.434.043.872.043 1.314v.084h1.446v-.084c0-.472-.015-.942-.046-1.407z"/></g><g><path fill="#f6f5f8" d="M30.264 42.726l.506 1.352c.464-.174.928-.369 1.38-.578l-.605-1.313c-.417.194-.85.375-1.28.539z"/></g><g><path fill="#f6f5f8" d="M26.912 43.67l.268 1.42a21.48 21.48 0 0 0 1.46-.33l-.37-1.398c-.45.119-.906.222-1.358.308z"/></g><g><path fill="#f6f5f8" d="M19.741 45.202c.494.078.994.14 1.485.183l.126-1.44c-.458-.04-.924-.098-1.385-.17z"/></g><g><path fill="#f6f5f8" d="M33.402 41.218l.738 1.244c.43-.255.854-.526 1.258-.804l-.819-1.191c-.378.26-.774.513-1.177.751z"/></g><g><path fill="#f6f5f8" d="M36.239 39.195l.94 1.1c.377-.322.749-.66 1.104-1.007l-1.012-1.034c-.33.323-.68.64-1.032.94z"/></g><g><path fill="#f6f5f8" d="M16.116 44.298c.472.163.954.31 1.43.434l.373-1.396a20.393 20.393 0 0 1-1.334-.407z"/></g><g><path fill="#7123db" d="M18.316 14.248l-.61-6.973 5.978-.523.61 6.973z"/></g></g></g></svg>