<svg xmlns="http://www.w3.org/2000/svg" width="17" height="17" viewBox="0 0 17 17"><g><g><g><path d="M15.864 12.29a3.578 3.578 0 0 1-3.574 3.574H4.562A3.578 3.578 0 0 1 .988 12.29V4.562A3.578 3.578 0 0 1 4.562.988h7.728a3.578 3.578 0 0 1 3.574 3.574zM4.562 0A4.567 4.567 0 0 0 0 4.562v7.728a4.567 4.567 0 0 0 4.562 4.562h7.728a4.567 4.567 0 0 0 4.562-4.562V4.562A4.567 4.567 0 0 0 12.29 0z"/></g><g><path d="M8.426 12.046a3.624 3.624 0 0 1-3.62-3.62 3.624 3.624 0 0 1 3.62-3.62 3.624 3.624 0 0 1 3.62 3.62 3.624 3.624 0 0 1-3.62 3.62zm0-8.228a4.613 4.613 0 0 0-4.608 4.608 4.613 4.613 0 0 0 4.608 4.608 4.613 4.613 0 0 0 4.607-4.608 4.613 4.613 0 0 0-4.607-4.608z"/></g><g><path d="M13.144 3.917a.374.374 0 1 1 0-.748.374.374 0 0 1 0 .748zm0-1.735c-.751 0-1.362.61-1.362 1.361s.61 1.362 1.362 1.362c.75 0 1.361-.611 1.361-1.362 0-.75-.61-1.361-1.361-1.361z"/></g></g></g></svg>