<svg xmlns="http://www.w3.org/2000/svg" width="34" height="40" viewBox="0 0 34 40"><g><g><g><path fill="#130f19" d="M10.646 8.888c0-.025.008-.05.008-.066.274-5.94 4.49-6.577 6.296-6.577h.1c2.236.05 6.038.96 6.294 6.577 0 .025 0 .05.009.066.008.058.588 5.69-2.046 8.656-1.044 1.176-2.435 1.756-4.266 1.773h-.082c-1.823-.017-3.223-.597-4.259-1.773-2.625-2.949-2.062-8.606-2.054-8.656zm6.221 12.665h.265c2.427-.041 4.39-.894 5.84-2.526 3.189-3.595 2.659-9.758 2.6-10.346-.206-4.415-2.294-6.527-4.017-7.513C20.271.431 18.772.033 17.1 0H16.958c-.92 0-2.725.15-4.456 1.135-1.74.986-3.86 3.098-4.067 7.546-.058.588-.589 6.75 2.6 10.346 1.442 1.632 3.405 2.485 5.832 2.526z"/></g><g><path fill="#130f19" d="M34.022 31.775v-.025c0-.066-.009-.133-.009-.207-.05-1.64-.157-5.475-3.752-6.701-.025-.009-.058-.017-.083-.025-3.736-.953-6.842-3.106-6.875-3.131a1.117 1.117 0 1 0-1.284 1.83c.141.1 3.438 2.394 7.563 3.454 1.93.688 2.145 2.75 2.203 4.639 0 .075 0 .14.008.207.009.746-.041 1.897-.174 2.56-1.341.762-6.601 3.396-14.603 3.396-7.968 0-13.261-2.643-14.612-3.405-.132-.662-.19-1.814-.174-2.56 0-.065.009-.132.009-.206.058-1.889.273-3.951 2.203-4.639 4.125-1.06 7.422-3.363 7.563-3.454a1.117 1.117 0 1 0-1.284-1.83c-.033.024-3.123 2.178-6.875 3.13a1.044 1.044 0 0 0-.083.025C.168 26.068.06 29.903.01 31.534c0 .075 0 .141-.008.208v.024c-.008.431-.016 2.643.423 3.753.082.215.232.397.43.522C1.104 36.206 7.06 40 17.025 40c9.964 0 15.92-3.802 16.168-3.96.19-.124.348-.306.431-.521.414-1.102.406-3.314.398-3.744z"/></g></g></g></svg>