<svg xmlns="http://www.w3.org/2000/svg" width="18" height="20" viewBox="0 0 18 20"><g><g><path fill="#130f19" d="M15.342 7.27a.565.565 0 1 0-.597.958c.616.384.983 1.046.983 1.772s-.367 1.388-.983 1.773l-9.263 5.775a2.063 2.063 0 0 1-2.119.054 2.063 2.063 0 0 1-1.075-1.827V4.226c0-.77.402-1.453 1.075-1.827a2.063 2.063 0 0 1 2.119.054l5.392 3.362a.565.565 0 0 0 .598-.958L6.08 1.494a3.178 3.178 0 0 0-3.265-.083A3.178 3.178 0 0 0 1.16 4.225v11.55c0 1.187.619 2.239 1.656 2.814.494.274 1.03.411 1.564.411.588 0 1.174-.165 1.7-.494l9.263-5.775A3.2 3.2 0 0 0 16.858 10a3.2 3.2 0 0 0-1.516-2.73z"/><path fill="none" stroke="#130f19" stroke-miterlimit="50" stroke-width=".3" d="M15.342 7.27a.565.565 0 1 0-.597.958c.616.384.983 1.046.983 1.772s-.367 1.388-.983 1.773l-9.263 5.775a2.063 2.063 0 0 1-2.119.054 2.063 2.063 0 0 1-1.075-1.827V4.226c0-.77.402-1.453 1.075-1.827a2.063 2.063 0 0 1 2.119.054l5.392 3.362a.565.565 0 0 0 .598-.958L6.08 1.494a3.178 3.178 0 0 0-3.265-.083A3.178 3.178 0 0 0 1.16 4.225v11.55c0 1.187.619 2.239 1.656 2.814.494.274 1.03.411 1.564.411.588 0 1.174-.165 1.7-.494l9.263-5.775A3.2 3.2 0 0 0 16.858 10a3.2 3.2 0 0 0-1.516-2.73z"/></g></g></svg>