<svg xmlns="http://www.w3.org/2000/svg" width="12" height="15" viewBox="0 0 12 15"><g><g><path fill="#f6f5f8" d="M10.48 5.701a.378.378 0 1 0-.401.642c.413.258.659.702.659 1.188s-.246.93-.66 1.188l-6.206 3.87a1.382 1.382 0 0 1-1.42.036 1.382 1.382 0 0 1-.72-1.224v-7.74c0-.516.27-.974.72-1.224.451-.25.982-.237 1.42.036l3.613 2.253a.379.379 0 0 0 .4-.642L4.274 1.83a2.13 2.13 0 0 0-2.188-.056 2.13 2.13 0 0 0-1.11 1.886v7.74c0 .795.415 1.5 1.11 1.886.331.183.69.275 1.048.275.394 0 .786-.11 1.14-.331l6.206-3.87a2.144 2.144 0 0 0 1.016-1.83c0-.75-.38-1.433-1.016-1.83z"/><path fill="none" stroke="#f6f5f8" stroke-miterlimit="50" stroke-width=".3" d="M10.48 5.701a.378.378 0 1 0-.401.642c.413.258.659.702.659 1.188s-.246.93-.66 1.188l-6.206 3.87a1.382 1.382 0 0 1-1.42.036 1.382 1.382 0 0 1-.72-1.224v-7.74c0-.516.27-.974.72-1.224.451-.25.982-.237 1.42.036l3.613 2.253a.379.379 0 0 0 .4-.642L4.274 1.83a2.13 2.13 0 0 0-2.188-.056 2.13 2.13 0 0 0-1.11 1.886v7.74c0 .795.415 1.5 1.11 1.886.331.183.69.275 1.048.275.394 0 .786-.11 1.14-.331l6.206-3.87a2.144 2.144 0 0 0 1.016-1.83c0-.75-.38-1.433-1.016-1.83z"/></g></g></svg>