<svg xmlns="http://www.w3.org/2000/svg" width="54.85" height="68.398" viewBox="0 0 54.85 68.398">
    <defs>
        <style>
            .cls-1{fill:#7123db}.cls-2{fill:#1feaa4}.cls-3{fill:#f31357}.cls-4{fill:#130f19}
        </style>
    </defs>
    <g id="first" transform="translate(-50.71)">
        <g id="Grupo_63" data-name="Grupo 63" transform="translate(59.201 6.668)">
            <g id="Grupo_62" data-name="Grupo 62">
                <path id="Caminho_209" d="M152.13 66.45a19.1 19.1 0 0 0-37.85 0 1 1 0 0 0 1.986.267 17.094 17.094 0 0 1 33.878 0 1 1 0 0 0 .992.869 1.016 1.016 0 0 0 .134-.009 1 1 0 0 0 .86-1.127z" class="cls-1" data-name="Caminho 209" transform="translate(-114.27 -49.913)"/>
            </g>
        </g>
        <g id="Grupo_65" data-name="Grupo 65" transform="translate(59.176 26.994)">
            <g id="Grupo_64" data-name="Grupo 64">
                <path id="Caminho_210" d="M151.119 202.083a1 1 0 0 0-1.117.871 17.094 17.094 0 0 1-33.924-.012 1 1 0 1 0-1.989.245 19.1 19.1 0 0 0 37.9.014 1 1 0 0 0-.87-1.118z" class="cls-2" data-name="Caminho 210" transform="translate(-114.081 -202.063)"/>
            </g>
        </g>
        <g id="Grupo_67" data-name="Grupo 67" transform="translate(69.587 13.606)">
            <g id="Grupo_66" data-name="Grupo 66">
                <path id="Caminho_211" d="M206.358 120.321h-2.246v-17.185a1.292 1.292 0 0 0-1.291-1.291h-3.378a1.293 1.293 0 0 0-.83.3l-6.138 5.151a1.286 1.286 0 0 0-.187 1.784l2.013 2.576a1.291 1.291 0 0 0 1.84.2l1.4-1.158v9.622H194.7a1.293 1.293 0 0 0-1.291 1.291v3.064a1.292 1.292 0 0 0 1.291 1.291h11.653a1.293 1.293 0 0 0 1.291-1.291v-3.064a1.292 1.292 0 0 0-1.286-1.29zm-.713 3.642h-10.227v-1.638h2.835a1.292 1.292 0 0 0 1.291-1.291v-11.85a1.291 1.291 0 0 0-2.115-.994l-2 1.657-1.138-1.456 5.412-4.542h2.406v17.185a1.292 1.292 0 0 0 1.291 1.291h2.246z" class="cls-3" data-name="Caminho 211" transform="translate(-192.012 -101.845)"/>
            </g>
        </g>
        <g id="Grupo_69" data-name="Grupo 69" transform="translate(50.71)">
            <g id="Grupo_68" data-name="Grupo 68">
                <path id="Caminho_212" d="M105.3 57.324L96.278 43.2a4.3 4.3 0 0 0 3.359-5 2.308 2.308 0 0 1 1.235-2.48 4.3 4.3 0 0 0 1.74-6.115 2.308 2.308 0 0 1 .256-2.758 4.3 4.3 0 0 0-.587-6.331 2.308 2.308 0 0 1-.758-2.664 4.3 4.3 0 0 0-2.834-5.692 2.308 2.308 0 0 1-1.669-2.209 4.3 4.3 0 0 0-4.7-4.283 2.308 2.308 0 0 1-2.355-1.458 4.3 4.3 0 0 0-5.929-2.3 2.309 2.309 0 0 1-2.722-.51 4.3 4.3 0 0 0-6.358 0 2.309 2.309 0 0 1-2.723.509 4.3 4.3 0 0 0-5.929 2.3 2.309 2.309 0 0 1-2.355 1.458 4.3 4.3 0 0 0-4.7 4.283 2.308 2.308 0 0 1-1.669 2.211 4.3 4.3 0 0 0-2.834 5.692 2.309 2.309 0 0 1-.758 2.664 4.3 4.3 0 0 0-.587 6.331 2.308 2.308 0 0 1 .256 2.758 4.3 4.3 0 0 0 1.74 6.115 2.308 2.308 0 0 1 1.235 2.48 4.3 4.3 0 0 0 3.359 5l-9.027 14.12a1.606 1.606 0 0 0 1.494 2.466l8.81-.775 2.994 8.322a1.6 1.6 0 0 0 1.338 1.054 1.657 1.657 0 0 0 .183.01 1.6 1.6 0 0 0 1.349-.741L78.135 50.44l11.007 17.217a1.594 1.594 0 0 0 1.349.741 1.628 1.628 0 0 0 .183-.01 1.6 1.6 0 0 0 1.332-1.053L95 59.014l8.81.775a1.606 1.606 0 0 0 1.494-2.465zm-52.217.4l8.8-13.766a2.292 2.292 0 0 1 .622 1.185 4.311 4.311 0 0 0 1.2 2.264l-6.267 9.933zm10.343 1.383l-.381-1.058a1.607 1.607 0 0 0-1.645-1.058l-1.444.127 5.472-8.673a4.31 4.31 0 0 0 2.491.043 2.306 2.306 0 0 1 1.986.359zm2.449 6.793l-1.583-4.4 6.989-11.08a4.289 4.289 0 0 0 3.855.993zm12.884-17.659a1.01 1.01 0 0 0-.2-.023c-.143-.014-.286-.024-.429-.024s-.286.01-.429.024a1.007 1.007 0 0 0-.2.023 4.279 4.279 0 0 0-1.968.817 2.3 2.3 0 0 1-3.339-.624 4.061 4.061 0 0 0-.274-.387 4.321 4.321 0 0 0-4.56-1.486 2.3 2.3 0 0 1-2.888-1.788 4.319 4.319 0 0 0-2.372-3.087 1 1 0 0 0-.192-.087 4.255 4.255 0 0 0-1.262-.32 2.3 2.3 0 0 1-2.046-2.71 4.32 4.32 0 0 0-2.311-4.641 2.3 2.3 0 0 1-.93-3.267 4.32 4.32 0 0 0-.478-5.162 2.3 2.3 0 0 1 .313-3.383 4.32 4.32 0 0 0 1.419-4.987 2.3 2.3 0 0 1 1.514-3.041 4.321 4.321 0 0 0 3.124-4.137 2.3 2.3 0 0 1 2.511-2.289 4.319 4.319 0 0 0 4.408-2.729 2.3 2.3 0 0 1 3.17-1.227 4.321 4.321 0 0 0 5.1-.953 2.3 2.3 0 0 1 3.4 0 4.321 4.321 0 0 0 5.1.953 2.3 2.3 0 0 1 3.16 1.227 4.32 4.32 0 0 0 4.408 2.729 2.3 2.3 0 0 1 2.51 2.289 4.32 4.32 0 0 0 3.124 4.137 2.3 2.3 0 0 1 1.514 3.041 4.32 4.32 0 0 0 1.419 4.987 2.3 2.3 0 0 1 .313 3.383 4.32 4.32 0 0 0-.478 5.162 2.3 2.3 0 0 1-.93 3.267 4.32 4.32 0 0 0-2.311 4.641 2.3 2.3 0 0 1-2.049 2.711 4.258 4.258 0 0 0-1.263.32 1 1 0 0 0-.19.086 4.319 4.319 0 0 0-2.378 3.087 2.3 2.3 0 0 1-2.889 1.788 4.321 4.321 0 0 0-4.56 1.486 4.263 4.263 0 0 0-.274.386 2.3 2.3 0 0 1-3.339.624 4.276 4.276 0 0 0-1.968-.816zM90.395 65.9l-9.262-14.489a4.281 4.281 0 0 0 3.856-.991l6.989 11.08zm4.477-8.906a1.607 1.607 0 0 0-1.652 1.056l-.381 1.058-6.472-10.26a2.306 2.306 0 0 1 1.986-.36 4.312 4.312 0 0 0 2.49-.043l5.472 8.673zm3.952.348l-6.267-9.933a4.312 4.312 0 0 0 1.2-2.264 2.291 2.291 0 0 1 .622-1.185l8.8 13.766z" class="cls-4" data-name="Caminho 212" transform="translate(-50.71)"/>
            </g>
        </g>
    </g>
</svg>
