<svg xmlns="http://www.w3.org/2000/svg" id="server" width="59.207" height="59.207" viewBox="0 0 59.207 59.207">
    <defs>
        <style>
            .cls-1{fill:#130f19}.cls-2{fill:#1feaa4}.cls-3{fill:#7123db}.cls-4{fill:#f31357}
        </style>
    </defs>
    <path id="Caminho_213" d="M59.207 30.558V5.73H45.838V0H13.369v5.73H0v24.828h5.73v14.46a3.812 3.812 0 1 0 4.639 4.639H19.1V51.3l2.345.781-1.106 2.211 3.675 3.675 2.21-1.105.776 2.345h5.2l.782-2.344 2.21 1.105 3.675-3.675-1.106-2.211 2.346-.781v-1.643h8.73a3.812 3.812 0 1 0 4.639-4.639V30.558zm-13.369-1.91v-5.73H57.3v5.73zm-29.6 0h-.955v-7.64h28.645v7.64zm29.6-13.369H57.3v5.73H45.838zm-1.91 3.82H15.279v-7.64h28.649zm-30.558 1.91H1.91v-5.73h11.459zM57.3 7.64v5.73H45.838V7.64zM43.928 1.91v7.64H15.279V1.91zM13.369 7.64v5.73H1.91V7.64zM1.91 22.919h11.459v5.73H1.91zm4.775 27.693a1.91 1.91 0 1 1 1.91-1.91 1.912 1.912 0 0 1-1.91 1.91zm3.684-2.865a3.814 3.814 0 0 0-2.729-2.729v-14.46h21.009V38.2H27l-.782 2.344-2.21-1.105-3.675 3.675 1.106 2.211-2.339.775v1.644zM38.2 49.924l-2.2.731-.16.425a7.053 7.053 0 0 1-.146.358l-.185.413 1.032 2.065-1.728 1.728-2.065-1.032-.414.185c-.119.054-.24.1-.362.148l-.421.161-.726 2.194h-2.444l-.731-2.191-.421-.161c-.122-.048-.244-.1-.362-.148l-.413-.185-2.064 1.029-1.728-1.728 1.032-2.065-.185-.413a6.545 6.545 0 0 1-.146-.358l-.16-.425-2.193-.732V47.48l2.194-.732.16-.425c.046-.121.094-.241.146-.358l.185-.413-1.032-2.065 1.727-1.727 2.065 1.032.414-.185c.119-.054.24-.1.362-.148l.421-.161.731-2.19h2.443l.731 2.191.421.161c.122.048.244.1.362.148l.413.185 2.065-1.032 1.728 1.728-1.032 2.065.185.413c.053.118.1.237.146.358l.16.425 2.193.732zM54.432 48.7a1.91 1.91 0 1 1-1.91-1.91 1.912 1.912 0 0 1 1.91 1.91zm-2.865-3.684a3.814 3.814 0 0 0-2.729 2.729h-8.73V46.1l-2.345-.781 1.106-2.211-3.675-3.675-2.21 1.105L32.2 38.2h-1.642v-7.64h21.009zm0 0" class="cls-1" data-name="Caminho 213"/>
    <path id="Caminho_214" d="M144 32h1.91v1.91H144zm0 0" class="cls-2" data-name="Caminho 214" transform="translate(-126.811 -28.18)"/>
    <path id="Caminho_215" d="M176 32h1.91v1.91H176zm0 0" class="cls-2" data-name="Caminho 215" transform="translate(-154.991 -28.18)"/>
    <path id="Caminho_216" d="M336 32h1.91v3.82H336zm0 0" class="cls-3" data-name="Caminho 216" transform="translate(-295.892 -28.18)"/>
    <path id="Caminho_217" d="M304 32h1.91v3.82H304zm0 0" class="cls-3" data-name="Caminho 217" transform="translate(-267.712 -28.18)"/>
    <path id="Caminho_218" d="M272 32h1.91v3.82H272zm0 0" class="cls-3" data-name="Caminho 218" transform="translate(-239.532 -28.18)"/>
    <path id="Caminho_219" d="M144 112h1.91v1.91H144zm0 0" class="cls-2" data-name="Caminho 219" transform="translate(-126.811 -98.631)"/>
    <path id="Caminho_220" d="M176 112h1.91v1.91H176zm0 0" class="cls-2" data-name="Caminho 220" transform="translate(-154.991 -98.631)"/>
    <path id="Caminho_221" d="M336 112h1.91v3.82H336zm0 0" class="cls-3" data-name="Caminho 221" transform="translate(-295.892 -98.631)"/>
    <path id="Caminho_222" d="M304 112h1.91v3.82H304zm0 0" class="cls-3" data-name="Caminho 222" transform="translate(-267.712 -98.631)"/>
    <path id="Caminho_223" d="M272 112h1.91v3.82H272zm0 0" class="cls-3" data-name="Caminho 223" transform="translate(-239.532 -98.631)"/>
    <path id="Caminho_224" d="M144 192h1.91v1.91H144zm0 0" class="cls-2" data-name="Caminho 224" transform="translate(-126.811 -169.081)"/>
    <path id="Caminho_225" d="M176 192h1.91v1.91H176zm0 0" class="cls-2" data-name="Caminho 225" transform="translate(-154.991 -169.081)"/>
    <path id="Caminho_226" d="M336 192h1.91v3.82H336zm0 0" class="cls-3" data-name="Caminho 226" transform="translate(-295.892 -169.081)"/>
    <path id="Caminho_227" d="M304 192h1.91v3.82H304zm0 0" class="cls-3" data-name="Caminho 227" transform="translate(-267.712 -169.081)"/>
    <path id="Caminho_228" d="M272 192h1.91v3.82H272zm0 0" class="cls-3" data-name="Caminho 228" transform="translate(-239.532 -169.081)"/>
    <path id="Caminho_229" d="M448 80h1.91v1.91H448zm0 0" class="cls-1" data-name="Caminho 229" transform="translate(-394.523 -70.45)"/>
    <path id="Caminho_230" d="M416 80h1.91v1.91H416zm0 0" class="cls-1" data-name="Caminho 230" transform="translate(-366.342 -70.45)"/>
    <path id="Caminho_231" d="M448 144h1.91v1.91H448zm0 0" class="cls-1" data-name="Caminho 231" transform="translate(-394.523 -126.811)"/>
    <path id="Caminho_232" d="M416 144h1.91v1.91H416zm0 0" class="cls-1" data-name="Caminho 232" transform="translate(-366.342 -126.811)"/>
    <path id="Caminho_233" d="M448 208h1.91v1.91H448zm0 0" class="cls-1" data-name="Caminho 233" transform="translate(-394.523 -183.171)"/>
    <path id="Caminho_234" d="M416 208h1.91v1.91H416zm0 0" class="cls-1" data-name="Caminho 234" transform="translate(-366.342 -183.171)"/>
    <path id="Caminho_235" d="M64 80h1.91v1.91H64zm0 0" class="cls-1" data-name="Caminho 235" transform="translate(-56.36 -70.45)"/>
    <path id="Caminho_236" d="M32 80h1.91v1.91H32zm0 0" class="cls-1" data-name="Caminho 236" transform="translate(-28.18 -70.45)"/>
    <path id="Caminho_237" d="M64 144h1.91v1.91H64zm0 0" class="cls-1" data-name="Caminho 237" transform="translate(-56.36 -126.811)"/>
    <path id="Caminho_238" d="M32 144h1.91v1.91H32zm0 0" class="cls-1" data-name="Caminho 238" transform="translate(-28.18 -126.811)"/>
    <path id="Caminho_239" d="M64 208h1.91v1.91H64zm0 0" class="cls-1" data-name="Caminho 239" transform="translate(-56.36 -183.171)"/>
    <path id="Caminho_240" d="M32 208h1.91v1.91H32zm0 0" class="cls-1" data-name="Caminho 240" transform="translate(-28.18 -183.171)"/>
    <path id="Caminho_241" d="M212.775 368a4.775 4.775 0 1 0 4.775 4.775 4.78 4.78 0 0 0-4.775-4.775zm0 7.64a2.865 2.865 0 1 1 2.865-2.865 2.869 2.869 0 0 1-2.865 2.865zm0 0" class="cls-4" data-name="Caminho 241" transform="translate(-183.171 -324.072)"/>
</svg>
