<svg xmlns="http://www.w3.org/2000/svg" width="38.529" height="68.953" viewBox="0 0 38.529 68.953">
    <defs>
        <style>
            .cls-1{fill:#130f19}.cls-2{fill:#1feaa4}.cls-3{fill:#f31357}.cls-4{fill:#7123db}
        </style>
    </defs>
    <g id="interactive" transform="translate(-112.953)">
        <g id="Grupo_17" data-name="Grupo 17" transform="translate(116.074 11.876)">
            <g id="Grupo_16" data-name="Grupo 16">
                <path id="Caminho_186" d="M157.089 115.21a3.2 3.2 0 0 0-1.674.173v-12.934a7.487 7.487 0 1 0-6.339 0v8.615a3.141 3.141 0 0 0-4.206 2.205 3.142 3.142 0 0 0-4.318 2.159 3.2 3.2 0 0 0-1.786-.219 3.258 3.258 0 0 0-2.644 3.242v6.926a13.978 13.978 0 0 0 .417 3.387l1.386 5.542a11.958 11.958 0 0 1 .357 2.9v7.042a1.01 1.01 0 1 0 2.02 0V137.2a13.98 13.98 0 0 0-.417-3.387l-1.386-5.542a11.956 11.956 0 0 1-.357-2.9v-6.926a1.241 1.241 0 0 1 .949-1.248 1.151 1.151 0 0 1 1.35 1.133 1.01 1.01 0 1 0 2.02 0v-2.044a1.241 1.241 0 0 1 .949-1.248 1.15 1.15 0 0 1 1.35 1.133 1.01 1.01 0 1 0 2.02 0v-2.044a1.241 1.241 0 0 1 .949-1.248 1.15 1.15 0 0 1 1.35 1.133 1.01 1.01 0 1 0 2.02 0V95.781a1.241 1.241 0 0 1 .949-1.248 1.151 1.151 0 0 1 1.35 1.133v22.671a1.01 1.01 0 0 0 2.02 0 1.151 1.151 0 0 1 1.349-1.133 1.241 1.241 0 0 1 .949 1.248v7.1a11.96 11.96 0 0 1-.284 2.591l-1.542 6.94a13.984 13.984 0 0 0-.333 3.029v6.135a1.01 1.01 0 0 0 2.02 0v-6.135a11.959 11.959 0 0 1 .284-2.591l1.542-6.94a13.983 13.983 0 0 0 .333-3.029v-7.1a3.258 3.258 0 0 0-2.647-3.242zM154.3 93.251a3.181 3.181 0 0 0-2.578-.712 3.258 3.258 0 0 0-2.644 3.242v4.34a5.467 5.467 0 1 1 6.339 0v-4.456a3.166 3.166 0 0 0-1.117-2.414z" class="cls-1" data-name="Caminho 186" transform="translate(-136.122 -88.178)"/>
            </g>
        </g>
        <g id="Grupo_19" data-name="Grupo 19" transform="translate(112.953 14.133)">
            <g id="Grupo_18" data-name="Grupo 18">
                <path id="Caminho_187" d="M114.564 104.966a1.01 1.01 0 0 0-1.214.752 19.415 19.415 0 0 0-.389 2.238 1.01 1.01 0 1 0 2.007.228 17.348 17.348 0 0 1 .348-2 1.01 1.01 0 0 0-.752-1.218z" class="cls-2" data-name="Caminho 187" transform="translate(-112.953 -104.939)"/>
            </g>
        </g>
        <g id="Grupo_21" data-name="Grupo 21" transform="translate(146.717 8.567)">
            <g id="Grupo_20" data-name="Grupo 20">
                <path id="Caminho_188" d="M366.619 66.071a19.38 19.38 0 0 0-1.1-1.988 1.01 1.01 0 0 0-1.708 1.079 17.415 17.415 0 0 1 .983 1.78 1.01 1.01 0 0 0 1.823-.871z" class="cls-2" data-name="Caminho 188" transform="translate(-363.657 -63.613)"/>
            </g>
        </g>
        <g id="Grupo_23" data-name="Grupo 23" transform="translate(118.652 3.572)">
            <g id="Grupo_22" data-name="Grupo 22">
                <path id="Caminho_189" d="M158.748 26.931a1.01 1.01 0 0 0-1.412-.214 19.53 19.53 0 0 0-1.746 1.452 1.01 1.01 0 1 0 1.38 1.475 17.494 17.494 0 0 1 1.565-1.3 1.01 1.01 0 0 0 .213-1.413z" class="cls-2" data-name="Caminho 189" transform="translate(-155.27 -26.52)"/>
            </g>
        </g>
        <g id="Grupo_25" data-name="Grupo 25" transform="translate(114.794 8.231)">
            <g id="Grupo_24" data-name="Grupo 24">
                <path id="Caminho_190" d="M129.271 61.282a1.01 1.01 0 0 0-1.4.284 19.421 19.421 0 0 0-1.142 1.965 1.01 1.01 0 1 0 1.8.911 17.371 17.371 0 0 1 1.022-1.76 1.01 1.01 0 0 0-.28-1.4z" class="cls-3" data-name="Caminho 190" transform="translate(-126.621 -61.113)"/>
            </g>
        </g>
        <g id="Grupo_27" data-name="Grupo 27" transform="translate(149.14 14.521)">
            <g id="Grupo_26" data-name="Grupo 26">
                <path id="Caminho_191" d="M383.987 110.865a19.434 19.434 0 0 0-.34-2.246 1.01 1.01 0 1 0-1.976.42 17.409 17.409 0 0 1 .3 2.011 1.01 1.01 0 0 0 1 .918h.094a1.01 1.01 0 0 0 .922-1.103z" class="cls-2" data-name="Caminho 191" transform="translate(-381.648 -107.819)"/>
            </g>
        </g>
        <g id="Grupo_29" data-name="Grupo 29" transform="translate(136.686 .838)">
            <g id="Grupo_28" data-name="Grupo 28">
                <path id="Caminho_192" d="M292.615 7.075a19.328 19.328 0 0 0-2.125-.808 1.01 1.01 0 1 0-.6 1.927 17.261 17.261 0 0 1 1.9.723 1.01 1.01 0 1 0 .828-1.843z" class="cls-2" data-name="Caminho 192" transform="translate(-289.178 -6.221)"/>
            </g>
        </g>
        <g id="Grupo_31" data-name="Grupo 31" transform="translate(130.31)">
            <g id="Grupo_30" data-name="Grupo 30">
                <path id="Caminho_193" d="M245.063.046a19.748 19.748 0 0 0-2.269-.024 1.01 1.01 0 0 0 .095 2.018 17.736 17.736 0 0 1 2.036.022h.07a1.01 1.01 0 0 0 .068-2.018z" class="cls-2" data-name="Caminho 193" transform="translate(-241.831)"/>
            </g>
        </g>
        <g id="Grupo_33" data-name="Grupo 33" transform="translate(124.04 .723)">
            <g id="Grupo_32" data-name="Grupo 32">
                <path id="Caminho_194" d="M199.285 6.1a1.01 1.01 0 0 0-1.251-.689 19.3 19.3 0 0 0-2.141.761 1.01 1.01 0 1 0 .787 1.86 17.285 17.285 0 0 1 1.916-.681 1.01 1.01 0 0 0 .689-1.251z" class="cls-2" data-name="Caminho 194" transform="translate(-195.276 -5.368)"/>
            </g>
        </g>
        <g id="Grupo_35" data-name="Grupo 35" transform="translate(142.388 3.813)">
            <g id="Grupo_34" data-name="Grupo 34">
                <path id="Caminho_195" d="M334.857 30.012a19.547 19.547 0 0 0-1.714-1.49 1.01 1.01 0 0 0-1.234 1.6 17.482 17.482 0 0 1 1.536 1.335 1.01 1.01 0 0 0 1.412-1.445z" class="cls-3" data-name="Caminho 195" transform="translate(-331.516 -28.312)"/>
            </g>
        </g>
        <g id="Grupo_37" data-name="Grupo 37" transform="translate(112.965 20.553)">
            <g id="Grupo_36" data-name="Grupo 36">
                <path id="Caminho_196" d="M115.415 155.5a17.3 17.3 0 0 1-.36-2 1.01 1.01 0 0 0-2.006.24 19.392 19.392 0 0 0 .4 2.236 1.01 1.01 0 0 0 1.964-.474z" class="cls-2" data-name="Caminho 196" transform="translate(-113.042 -152.61)"/>
            </g>
        </g>
        <g id="Grupo_39" data-name="Grupo 39" transform="translate(141.66 32.095)">
            <g id="Grupo_38" data-name="Grupo 38">
                <path id="Caminho_197" d="M329.57 238.654a1.01 1.01 0 0 0-1.426-.086 17.525 17.525 0 0 1-1.6 1.258 1.01 1.01 0 1 0 1.154 1.658 19.511 19.511 0 0 0 1.785-1.4 1.01 1.01 0 0 0 .087-1.43z" class="cls-3" data-name="Caminho 197" transform="translate(-326.112 -238.313)"/>
            </g>
        </g>
        <g id="Grupo_41" data-name="Grupo 41" transform="translate(146.217 27.057)">
            <g id="Grupo_40" data-name="Grupo 40">
                <path id="Caminho_198" d="M362.566 201.023a1.01 1.01 0 0 0-1.369.409 17.4 17.4 0 0 1-1.07 1.731 1.01 1.01 0 1 0 1.653 1.161 19.43 19.43 0 0 0 1.195-1.933 1.01 1.01 0 0 0-.409-1.368z" class="cls-2" data-name="Caminho 198" transform="translate(-359.944 -200.901)"/>
            </g>
        </g>
        <g id="Grupo_43" data-name="Grupo 43" transform="translate(118.727 31.827)">
            <g id="Grupo_42" data-name="Grupo 42">
                <path id="Caminho_199" d="M159.089 237.885a17.511 17.511 0 0 1-1.572-1.293 1.01 1.01 0 0 0-1.372 1.483 19.553 19.553 0 0 0 1.754 1.443 1.01 1.01 0 1 0 1.19-1.633z" class="cls-2" data-name="Caminho 199" transform="translate(-155.82 -236.323)"/>
            </g>
        </g>
        <g id="Grupo_45" data-name="Grupo 45" transform="translate(137.665 35.451)">
            <g id="Grupo_44" data-name="Grupo 44">
                <path id="Caminho_200" d="M298.6 263.878a1.01 1.01 0 0 0-1.308-.573l-.192.074a1.01 1.01 0 1 0 .714 1.89l.214-.082a1.01 1.01 0 0 0 .572-1.309z" class="cls-2" data-name="Caminho 200" transform="translate(-296.446 -263.236)"/>
            </g>
        </g>
        <g id="Grupo_47" data-name="Grupo 47" transform="translate(114.84 26.703)">
            <g id="Grupo_46" data-name="Grupo 46">
                <path id="Caminho_201" d="M129.905 200.58a17.41 17.41 0 0 1-1.032-1.754 1.01 1.01 0 1 0-1.8.92 19.381 19.381 0 0 0 1.152 1.958 1.01 1.01 0 1 0 1.678-1.125z" class="cls-2" data-name="Caminho 201" transform="translate(-126.964 -198.277)"/>
            </g>
        </g>
        <g id="Grupo_49" data-name="Grupo 49" transform="translate(148.931 20.947)">
            <g id="Grupo_48" data-name="Grupo 48">
                <path id="Caminho_202" d="M381.677 155.546a1.01 1.01 0 0 0-1.142.859 17.3 17.3 0 0 1-.4 2 1.01 1.01 0 1 0 1.953.517 19.356 19.356 0 0 0 .451-2.229 1.01 1.01 0 0 0-.862-1.147z" class="cls-2" data-name="Caminho 202" transform="translate(-380.098 -155.536)"/>
            </g>
        </g>
        <g id="Grupo_51" data-name="Grupo 51" transform="translate(118.233 5.398)">
            <g id="Grupo_50" data-name="Grupo 50">
                <path id="Caminho_203" d="M166.121 40.081a13.966 13.966 0 0 0-6.979 26.063 1.01 1.01 0 1 0 1.011-1.749 11.945 11.945 0 1 1 11.94 0 1.01 1.01 0 0 0 1.012 1.749 13.966 13.966 0 0 0-6.984-26.06z" class="cls-4" data-name="Caminho 203" transform="translate(-152.156 -40.081)"/>
            </g>
        </g>
    </g>
</svg>
