<svg xmlns="http://www.w3.org/2000/svg" width="17" height="14" viewBox="0 0 17 14"><g><g><path d="M1.257 11.997c1.156-.06 2.115-.31 2.992-.775a.581.581 0 0 0-.173-1.087c-1.029-.179-1.697-.647-2.115-1.498.233.09.486.145.772.166a.581.581 0 0 0 .372-1.059c-.746-.51-1.34-1.203-1.684-1.952.17.088.348.156.542.208a.577.577 0 0 0 .643-.254.579.579 0 0 0-.056-.69c-.448-.512-.743-1.085-.854-1.656A2.91 2.91 0 0 1 1.888 1.7c1.65 1.658 3.238 2.45 5.917 2.978a.58.58 0 0 0 .694-.57C8.5 2.417 9.821 1.025 11.447 1c.44.001 1.171.262 1.956.7a.63.63 0 0 0 .485.052c.44-.134.948-.335 1.483-.56a3.2 3.2 0 0 1-.22.348.578.578 0 0 0 .004.688c.131.176.345.26.556.227-.204.447-.518.797-.906 1.002a.58.58 0 0 0-.31.514V4c0 2.382-.85 4.623-2.395 6.31-1.531 1.674-3.558 2.596-5.705 2.596-2.233 0-4.138-.342-5.138-.908zm5.138 1.894c4.947 0 8.983-4.327 9.084-9.687.603-.39 1.059-1.013 1.296-1.778l.007-.026a.845.845 0 0 0-.21-.79.783.783 0 0 0-.228-.158c.057-.12.108-.243.153-.368A.768.768 0 0 0 16.33.24a.782.782 0 0 0-.874-.154c-.62.265-1.216.516-1.711.678-.577-.31-1.532-.749-2.301-.749h-.007a3.9 3.9 0 0 0-2.784 1.227 4.117 4.117 0 0 0-1.111 2.373c-2.324-.51-3.667-1.257-5.168-2.83l-.19-.19a.583.583 0 0 0-.93.151l-.105.209C.7 1.818.557 2.705.73 3.588c.062.319.166.636.31.945a.814.814 0 0 0-.388.11c-.29.156-.45.521-.379.876l.005.022.006.022A5.3 5.3 0 0 0 1.37 7.51a.8.8 0 0 0-.239.122.785.785 0 0 0-.273.915c.375 1.059 1.006 1.79 1.915 2.213-.57.166-1.197.252-1.915.264a.879.879 0 0 0-.802.552l-.01.027a.863.863 0 0 0 .227.907l.019.019.02.016c1.06.855 3.278 1.345 6.083 1.345z"/></g></g></svg>