<svg xmlns="http://www.w3.org/2000/svg" width="10" height="17" viewBox="0 0 10 17"><g><g><path d="M3.38 9.504999999999999a.546.546 0 0 0-.546-.546H.988V6.692h1.846c.301 0 .546-.245.546-.546V4.398c0-2.103 1.268-3.41 3.31-3.41L8.577.99v2.081H7.36c-.386 0-.941.047-1.293.445-.291.33-.33.77-.33 1.155v1.474c0 .301.244.546.545.546H8.48v2.267H6.282c-.3 0-.546.245-.546.546v6.359H3.38zm2.528 7.347c.45 0 .817-.367.817-.818V9.947H8.65c.45 0 .817-.367.817-.817l.001-2.608a.82.82 0 0 0-.825-.818H6.725V4.672c0-.336.046-.458.084-.5.023-.027.13-.112.553-.112h1.385c.451 0 .818-.367.818-.818V.821a.819.819 0 0 0-.816-.818L6.69 0C5.42 0 4.34.419 3.568 1.212c-.77.79-1.176 1.891-1.176 3.186v1.306H.817A.818.818 0 0 0 0 6.522V9.13c0 .45.367.817.817.817h1.575v6.087c0 .45.367.818.817.818h2.699z"/></g></g></svg>