<svg xmlns="http://www.w3.org/2000/svg" width="14" height="15" viewBox="0 0 14 15"><g><g><g><path d="M2.691 14.12H.895V5.322H2.69zm.366-9.678H.53a.515.515 0 0 0-.514.514v9.53c0 .283.23.514.514.514h2.528c.284 0 .514-.23.514-.514v-9.53a.515.515 0 0 0-.514-.514z"/></g><g><path d="M1.793 2.706a.914.914 0 0 1 0-1.826.914.914 0 0 1 0 1.826zm0-2.706C.804 0 0 .804 0 1.793c0 .989.804 1.793 1.793 1.793.989 0 1.793-.804 1.793-1.793C3.586.804 2.782 0 1.793 0z"/></g><g><path d="M12.483 14.12h-1.625V8.832A1.78 1.78 0 0 0 9.08 7.053 1.78 1.78 0 0 0 7.3 8.832v5.288H5.505V5.322h1.796v.64h.001a.44.44 0 0 0 .731.33c.434-.384.991-.602 1.57-.612a2.398 2.398 0 0 1 1.582.555 3.6 3.6 0 0 1 1.298 2.771zm-.734-8.56a3.28 3.28 0 0 0-2.163-.76c-.49.009-.97.127-1.404.341v-.208a.491.491 0 0 0-.491-.49H5.116a.491.491 0 0 0-.491.49v9.576c0 .271.22.491.491.491h2.625a.44.44 0 0 0 .44-.44V8.85a.91.91 0 0 1 .872-.916.9.9 0 0 1 .925.898v5.737c0 .238.193.431.43.431h2.524a.43.43 0 0 0 .43-.43V9.005c0-1.334-.587-2.59-1.613-3.447z"/></g></g></g></svg>