<svg xmlns="http://www.w3.org/2000/svg" width="17" height="13" viewBox="0 0 17 13"><g><g><g><path d="M7.272 7.597V4.578l2.783 1.523zm3.748-2.094L7.297 3.466a.678.678 0 0 0-.677.012.678.678 0 0 0-.335.588v4.04c0 .242.124.461.333.586a.682.682 0 0 0 .674.015l3.723-2.002a.684.684 0 0 0 .005-1.202z"/></g><g><path d="M15.864 6.898a34.57 34.57 0 0 1-.12 2.652c-.041.325-.212 1.072-.484 1.368-.42.462-.85.507-1.165.54a5.403 5.403 0 0 0-.105.013c-2.155.155-5.393.18-5.542.18-.167-.002-4.141-.063-5.388-.179a4.33 4.33 0 0 0-.206-.026c-.369-.043-.874-.1-1.263-.528l-.009-.01c-.267-.278-.433-.977-.475-1.354a34.51 34.51 0 0 1-.12-2.656V5.637c0-1.247.11-2.532.12-2.652.05-.383.223-1.085.484-1.369.433-.475.889-.528 1.19-.563l.08-.01C5.049.888 8.31.864 8.427.864c.117 0 3.376.024 5.543.18l.087.01c.31.036.78.09 1.21.549l.003.004c.268.279.433.99.475 1.374.008.084.12 1.388.12 2.657zm.864-4.01l-.001-.008c-.014-.136-.156-1.342-.743-1.956-.678-.722-1.447-.81-1.816-.851a4.468 4.468 0 0 1-.084-.01l-.03-.003C11.828-.102 8.463-.124 8.43-.125h-.006c-.034 0-3.398.023-5.646.185l-.03.003-.079.01C2.303.113 1.542.202.863.95c-.56.607-.72 1.788-.737 1.92l-.002.018A35 35 0 0 0 0 5.637v1.26c0 1.35.119 2.693.124 2.75v.008c.015.134.157 1.318.74 1.932.638.698 1.444.79 1.878.84.068.007.127.014.168.021l.039.006c1.286.122 5.319.182 5.49.185h.01c.034 0 3.398-.022 5.626-.184l.03-.004.094-.01c.363-.039 1.12-.119 1.79-.857.559-.607.72-1.787.737-1.92l.002-.017c.005-.057.124-1.4.124-2.75v-1.26c0-1.35-.12-2.693-.124-2.75z"/></g></g></g></svg>